<?xml version="1.0" standalone="no"?>
<!DOCTYPE svg PUBLIC "-//W3C//DTD SVG 20010904//EN"
 "http://www.w3.org/TR/2001/REC-SVG-20010904/DTD/svg10.dtd">
<svg version="1.0" xmlns="http://www.w3.org/2000/svg"
 width="1920.000000pt" height="790.000000pt" viewBox="0 0 1920.000000 790.000000"
 preserveAspectRatio="xMidYMid meet">

<g transform="translate(0.000000,790.000000) scale(0.100000,-0.100000)"
fill="#64dd17" stroke="none">
<path d="M0 5266 l0 -2633 153 -6 c152 -6 393 -35 497 -61 30 -8 91 -23 135
-34 44 -11 135 -41 203 -66 329 -121 596 -307 790 -551 45 -57 196 -212 262
-271 184 -161 453 -312 725 -407 147 -52 193 -64 392 -106 239 -50 316 -56
713 -55 420 0 577 15 865 81 125 28 508 26 707 -5 82 -13 172 -29 200 -37 29
-7 80 -18 113 -25 72 -15 267 -70 385 -110 128 -43 283 -99 305 -110 11 -6 52
-21 90 -34 108 -38 318 -115 340 -125 11 -5 54 -21 95 -34 41 -14 127 -44 190
-67 63 -23 124 -44 135 -47 11 -2 29 -8 40 -13 11 -5 65 -23 120 -41 55 -17
109 -35 120 -40 31 -13 344 -107 502 -150 222 -60 520 -126 743 -163 134 -22
388 -48 570 -58 297 -16 460 -2 740 62 107 25 409 123 457 149 10 5 54 24 98
41 179 71 303 129 865 408 394 195 588 289 700 339 25 12 70 32 100 45 53 24
178 73 345 136 182 69 371 120 585 159 148 27 169 28 450 27 287 -1 376 -6
774 -49 77 -8 147 -17 155 -20 9 -2 89 -14 178 -25 90 -11 168 -22 175 -25 7
-2 121 -18 253 -35 132 -17 247 -33 255 -35 44 -13 433 -24 562 -15 368 23
727 130 1023 305 42 25 78 45 81 45 3 0 20 11 38 25 18 14 36 25 40 25 4 0 12
5 19 10 7 6 74 55 150 110 76 55 231 175 345 267 214 174 425 339 487 383 20
14 42 30 48 35 13 11 124 84 192 127 186 115 422 210 608 244 l87 17 0 2523 0
2524 -9600 0 -9600 0 0 -2634z"/>
</g>
</svg>
