<svg xmlns="http://www.w3.org/2000/svg" viewBox="0 0 387.41 351.5"><defs><style>.cls-1{opacity:0.73;}.cls-14,.cls-18,.cls-2,.cls-23{fill:#fff;}.cls-3{opacity:0.69;}.cls-4{opacity:0.55;}.cls-23,.cls-5{opacity:0.38;}.cls-6{opacity:0.61;}.cls-7{fill:#6d6cd4;opacity:0.74;}.cls-20,.cls-8{fill:#3e479b;}.cls-13,.cls-21,.cls-22,.cls-9{fill:#599af2;}.cls-10,.cls-19{fill:#f7a9b4;}.cls-11{fill:none;}.cls-12{fill:#4c65ba;}.cls-13,.cls-15{opacity:0.36;}.cls-14{opacity:0.43;}.cls-16{opacity:0.26;}.cls-17{opacity:0.57;}.cls-18,.cls-19{opacity:0.39;}.cls-20{opacity:0.22;}.cls-21{opacity:0.32;}.cls-22{opacity:0.42;}</style></defs><title>app-mobile-slim</title><g id="Layer_2" data-name="Layer 2"><g id="OBJECTS"><g class="cls-1"><path class="cls-2" d="M60,123.24a5.38,5.38,0,0,1-1.48-.2l-8.4-2.3a5.56,5.56,0,0,1-3.89-6.82L49,103.66A46.87,46.87,0,0,1,35.46,93.17l-9.24,5.27a5.56,5.56,0,0,1-7.58-2.08L14.33,88.8a5.56,5.56,0,0,1,2.07-7.58L25.64,76a46.79,46.79,0,0,1-2.15-17l-10.26-2.8a5.57,5.57,0,0,1-3.89-6.83l2.3-8.4A5.57,5.57,0,0,1,18.47,37l10.26,2.81A46.52,46.52,0,0,1,39.22,26.32L34,17.08A5.57,5.57,0,0,1,36,9.5l7.57-4.32a5.56,5.56,0,0,1,7.58,2.08l5.27,9.23a46.94,46.94,0,0,1,17-2.14L76.23,4.09A5.56,5.56,0,0,1,83.05.2l8.41,2.3a5.56,5.56,0,0,1,3.89,6.82L92.54,19.58a47,47,0,0,1,13.53,10.49l9.24-5.27a5.56,5.56,0,0,1,7.58,2.08l4.31,7.56A5.58,5.58,0,0,1,125.13,42l-9.24,5.26a46.56,46.56,0,0,1,2.14,17l10.26,2.8a5.57,5.57,0,0,1,3.9,6.83l-2.3,8.4a5.57,5.57,0,0,1-6.83,3.9L112.8,83.4a46.69,46.69,0,0,1-10.49,13.53l5.27,9.23a5.55,5.55,0,0,1,.53,4.22,5.48,5.48,0,0,1-2.61,3.36l-7.56,4.32A5.56,5.56,0,0,1,90.36,116l-5.27-9.23a47,47,0,0,1-17,2.14L65.3,119.15A5.56,5.56,0,0,1,60,123.24ZM36.12,89.33l.81,1a43.89,43.89,0,0,0,14.48,11.23l1.12.54-3.46,12.65a2.57,2.57,0,0,0,1.79,3.14l8.4,2.3a2.56,2.56,0,0,0,2-.25,2.51,2.51,0,0,0,1.2-1.54l3.46-12.65,1.24.1a43.84,43.84,0,0,0,18.18-2.29l1.18-.41L93,114.5a2.56,2.56,0,0,0,1.55,1.2,2.53,2.53,0,0,0,1.94-.25l7.57-4.31a2.56,2.56,0,0,0,1.2-1.55,2.53,2.53,0,0,0-.25-1.94L98.48,96.26l1-.81A43.89,43.89,0,0,0,110.66,81l.54-1.12,12.65,3.46A2.56,2.56,0,0,0,127,81.52l2.3-8.4A2.55,2.55,0,0,0,127.5,70l-12.65-3.46.1-1.25a43.86,43.86,0,0,0-2.29-18.18l-.41-1.17,11.39-6.5a2.57,2.57,0,0,0,1-3.49l-4.32-7.56a2.57,2.57,0,0,0-3.49-1l-11.39,6.5-.8-.95A43.83,43.83,0,0,0,90.12,21.73L89,21.18,92.46,8.53a2.53,2.53,0,0,0-.25-1.94,2.56,2.56,0,0,0-1.55-1.2l-8.4-2.3a2.56,2.56,0,0,0-3.14,1.79L75.66,17.53l-1.24-.1a43.84,43.84,0,0,0-18.18,2.29l-1.18.41L48.56,8.74a2.55,2.55,0,0,0-3.49-1L37.51,12.1a2.57,2.57,0,0,0-1,3.49L43.05,27l-.95.81A43.63,43.63,0,0,0,30.87,42.27l-.54,1.12L17.67,39.93a2.55,2.55,0,0,0-3.14,1.79l-2.3,8.4A2.56,2.56,0,0,0,14,53.26l12.65,3.46L26.57,58a43.87,43.87,0,0,0,2.3,18.18l.41,1.17-11.39,6.5a2.57,2.57,0,0,0-1,3.49l4.32,7.57a2.54,2.54,0,0,0,3.48,1ZM70.8,86.69a25.24,25.24,0,0,1-6.65-.9h0a24.88,24.88,0,1,1,6.65.9Zm-.07-47.13a22.12,22.12,0,1,0,5.85.79A22,22,0,0,0,70.73,39.56Z"/></g><g class="cls-3"><path class="cls-2" d="M303.12,96.18l-56.57,1c-1.64,0-3-1-3-2.31l-.68-37.56c0-1.3,1.28-2.39,2.92-2.42l56.57-1c1.64,0,3,1,3,2.3L306,93.77C306.07,95.07,304.76,96.15,303.12,96.18ZM245.79,55.63c-1.25,0-2.25.78-2.23,1.69l.68,37.57c0,.91,1,1.64,2.29,1.62l56.58-1c1.25,0,2.25-.79,2.23-1.7l-.68-37.57c0-.91-1.05-1.63-2.29-1.61Z"/><rect class="cls-2" x="243.3" y="62.07" width="61.44" height="0.7" transform="translate(-1.09 4.99) rotate(-1.04)"/><path class="cls-2" d="M247.73,60.73a1.32,1.32,0,1,1,1.3-1.34A1.33,1.33,0,0,1,247.73,60.73Zm0-1.94a.62.62,0,1,0,0,1.24.62.62,0,0,0,0-1.24Z"/><path class="cls-2" d="M251.38,60.67a1.33,1.33,0,1,1,1.29-1.35A1.33,1.33,0,0,1,251.38,60.67Zm0-2a.63.63,0,0,0,0,1.25.63.63,0,0,0,0-1.25Z"/><path class="cls-2" d="M255,60.6a1.32,1.32,0,1,1,1.3-1.34A1.31,1.31,0,0,1,255,60.6Zm0-1.94a.62.62,0,1,0,0,1.24.63.63,0,0,0,.61-.63A.62.62,0,0,0,254.92,58.66Z"/></g><g class="cls-3"><path class="cls-2" d="M113.23,320.72l-56.57,1c-1.64,0-3-1-3-2.31L53,281.88a2.73,2.73,0,0,1,2.92-2.42l56.58-1c1.63,0,3,1,3,2.3l.69,37.57C116.18,319.61,114.87,320.69,113.23,320.72ZM55.9,280.17c-1.24,0-2.25.78-2.23,1.69l.68,37.57c0,.91,1,1.64,2.3,1.61l56.57-1c1.25,0,2.25-.79,2.23-1.7l-.68-37.57c0-.91-1-1.63-2.29-1.61Z"/><rect class="cls-2" x="53.42" y="286.61" width="61.44" height="0.7" transform="translate(-5.2 1.57) rotate(-1.04)"/><path class="cls-2" d="M57.84,285.27a1.32,1.32,0,1,1,1.3-1.34A1.31,1.31,0,0,1,57.84,285.27Zm0-1.94a.62.62,0,1,0,.63.61A.62.62,0,0,0,57.81,283.33Z"/><path class="cls-2" d="M61.49,285.21a1.33,1.33,0,1,1,1.3-1.35A1.33,1.33,0,0,1,61.49,285.21Zm0-1.95a.61.61,0,0,0-.6.63.6.6,0,0,0,.63.61.62.62,0,0,0,.61-.63A.63.63,0,0,0,61.45,283.26Z"/><path class="cls-2" d="M65.07,285.14a1.32,1.32,0,1,1,0-2.64,1.32,1.32,0,0,1,0,2.64Zm0-1.94a.62.62,0,0,0,0,1.24.62.62,0,1,0,0-1.24Z"/></g><g class="cls-4"><path class="cls-2" d="M348.32,214.43l-5.85-4.69a28.87,28.87,0,0,0,3.34-11.5l7.46-.82a2.56,2.56,0,0,0,2.27-2.83l-.61-5.47a2.56,2.56,0,0,0-2.83-2.27l-7.45.82a28.8,28.8,0,0,0-5.77-10.49l4.69-5.86a2.56,2.56,0,0,0-.39-3.6l-4.3-3.45a2.57,2.57,0,0,0-3.6.4l-4.7,5.85a28.78,28.78,0,0,0-11.5-3.34l-.82-7.46a2.56,2.56,0,0,0-2.83-2.27l-5.47.61a2.56,2.56,0,0,0-2.27,2.83l.82,7.45A28.8,28.8,0,0,0,298,174.11l-5.86-4.69a2.55,2.55,0,0,0-3.6.4l-3.44,4.29a2.57,2.57,0,0,0,.39,3.61l5.86,4.69a28.63,28.63,0,0,0-3.35,11.5l-7.45.82a2.56,2.56,0,0,0-2.27,2.83l.6,5.47a2.56,2.56,0,0,0,2.83,2.27l7.46-.82A28.78,28.78,0,0,0,295,215l-4.69,5.86a2.56,2.56,0,0,0,.4,3.6l4.29,3.45a2.58,2.58,0,0,0,3.61-.4l4.69-5.85a28.87,28.87,0,0,0,11.5,3.34l.82,7.46a2.56,2.56,0,0,0,2.83,2.26l5.47-.6a2.56,2.56,0,0,0,2.27-2.83l-.82-7.45a28.84,28.84,0,0,0,10.5-5.77l5.85,4.69a2.56,2.56,0,0,0,3.61-.4l3.44-4.29A2.57,2.57,0,0,0,348.32,214.43Zm-40.71-6.74a14.89,14.89,0,1,1,20.92-2.3A14.89,14.89,0,0,1,307.61,207.69Z"/><path class="cls-2" d="M318.11,235.21a3,3,0,0,1-1.91-.67,3.08,3.08,0,0,1-1.13-2.06l-.77-7a29.26,29.26,0,0,1-10.92-3.18L299,227.79a3.07,3.07,0,0,1-4.31.48l-4.29-3.45a3.07,3.07,0,0,1-.48-4.31L294.3,215a29,29,0,0,1-5.47-10l-7.05.78a3.1,3.1,0,0,1-2.25-.66,3,3,0,0,1-1.13-2l-.6-5.48a3.07,3.07,0,0,1,2.71-3.38l7.05-.77a29,29,0,0,1,3.17-10.92l-5.53-4.43a3.08,3.08,0,0,1-1.13-2.06,3,3,0,0,1,.66-2.25l3.44-4.3a3,3,0,0,1,2.06-1.13,3.07,3.07,0,0,1,2.25.66l5.53,4.43A29.07,29.07,0,0,1,308,168l-.77-7.05a3.06,3.06,0,0,1,2.71-3.38l5.47-.6a3.07,3.07,0,0,1,3.38,2.71l.78,7a29.16,29.16,0,0,1,10.91,3.18l4.44-5.53a3.06,3.06,0,0,1,4.3-.48l4.3,3.45a3,3,0,0,1,1.13,2,3,3,0,0,1-.66,2.25l-4.43,5.54a29.17,29.17,0,0,1,5.48,10l7-.78a3.07,3.07,0,0,1,3.38,2.71l.6,5.48a3.06,3.06,0,0,1-2.71,3.38l-7,.77a29.26,29.26,0,0,1-3.18,10.92l5.53,4.43a3.07,3.07,0,0,1,.48,4.31l-3.44,4.3a3.08,3.08,0,0,1-4.31.47l-5.53-4.43a29.12,29.12,0,0,1-10,5.47l.78,7.05a3.07,3.07,0,0,1-2.71,3.38l-5.47.6Zm-15-14.22.37.19a28,28,0,0,0,11.3,3.29l.41,0,.87,7.87a2.06,2.06,0,0,0,2.28,1.83l5.47-.61a2.08,2.08,0,0,0,1.83-2.27l-.87-7.87.4-.12a28.18,28.18,0,0,0,10.31-5.67l.32-.27,6.17,5a2.08,2.08,0,0,0,2.91-.32l3.44-4.29a2.08,2.08,0,0,0-.32-2.91h0l-6.18-4.95.2-.37a28.15,28.15,0,0,0,3.28-11.3l0-.41,7.86-.87a2.06,2.06,0,0,0,1.83-2.28l-.6-5.47a2,2,0,0,0-.76-1.38,2,2,0,0,0-1.52-.44l-7.87.86-.12-.39a28,28,0,0,0-5.67-10.32l-.27-.31,4.95-6.18a2,2,0,0,0,.44-1.52,2,2,0,0,0-.76-1.38l-4.29-3.45a2.06,2.06,0,0,0-2.9.32l-5,6.18-.36-.2a28.19,28.19,0,0,0-11.3-3.28l-.42,0-.86-7.87a2.09,2.09,0,0,0-2.28-1.83l-5.47.6a2.08,2.08,0,0,0-1.83,2.28l.87,7.87-.4.12a28.15,28.15,0,0,0-10.32,5.67l-.31.27-6.18-4.95a2.06,2.06,0,0,0-2.9.32l-3.44,4.29a2,2,0,0,0-.45,1.52,2.12,2.12,0,0,0,.77,1.39l6.17,4.95-.19.36a28,28,0,0,0-3.29,11.3l0,.42-7.87.87a2.08,2.08,0,0,0-1.83,2.27l.61,5.48a2.06,2.06,0,0,0,2.28,1.82l7.86-.86.12.39a28.28,28.28,0,0,0,5.67,10.32l.27.31-5,6.18a2.08,2.08,0,0,0-.44,1.52A2,2,0,0,0,291,224l4.3,3.45a2.07,2.07,0,0,0,2.9-.32Zm13.78-9.53a15.38,15.38,0,1,1,12-5.76A15.34,15.34,0,0,1,316.9,211.46Zm0-29.78a14.44,14.44,0,0,0-1.6.09,14.3,14.3,0,1,0,1.6-.09Z"/></g><g class="cls-5"><path class="cls-2" d="M385.63,258.88H329a2,2,0,0,1-1.77-2.11V235.93a2,2,0,0,1,1.77-2.11h56.62a2,2,0,0,1,1.78,2.11v20.84A2,2,0,0,1,385.63,258.88ZM329,234.82c-.42,0-.77.51-.77,1.11v20.84c0,.6.35,1.11.77,1.11h56.62c.42,0,.78-.51.78-1.11V235.93c0-.6-.36-1.11-.78-1.11Z"/><rect class="cls-2" x="338.9" y="241.88" width="38.33" height="1"/><path class="cls-2" d="M377.22,243.38H338.9a1,1,0,0,1,0-2h38.32a1,1,0,0,1,0,2Zm0-1v0Z"/><rect class="cls-2" x="338.9" y="246.43" width="17.13" height="1"/><path class="cls-2" d="M356,247.93H338.9a1,1,0,0,1,0-2H356a1,1,0,0,1,0,2Zm0-1v0Z"/><rect class="cls-2" x="360.1" y="246.43" width="17.13" height="1"/><path class="cls-2" d="M377.22,247.93H360.1a1,1,0,0,1,0-2h17.12a1,1,0,0,1,0,2Zm0-1v0Z"/><rect class="cls-2" x="338.9" y="251.18" width="38.33" height="1"/><path class="cls-2" d="M377.22,252.68H338.9a1,1,0,0,1,0-2h38.32a1,1,0,0,1,0,2Zm0-1v0Z"/></g><g class="cls-4"><path class="cls-2" d="M228,351.5a3.46,3.46,0,0,1-3.45-3.1l-.71-6.39a28.75,28.75,0,0,1-9.94-2.89l-4,5a3.49,3.49,0,0,1-4.9.54l-4.15-3.33a3.48,3.48,0,0,1-.54-4.89l4-5a28.44,28.44,0,0,1-5-9.07l-6.4.7a3.49,3.49,0,0,1-3.84-3.08l-.58-5.29a3.49,3.49,0,0,1,3.08-3.84l6.39-.7a28.61,28.61,0,0,1,2.9-9.94l-5-4a3.48,3.48,0,0,1-.54-4.89l3.33-4.15a3.42,3.42,0,0,1,2.33-1.28,3.47,3.47,0,0,1,2.56.74l5,4a28.94,28.94,0,0,1,9.07-5l-.7-6.39A3.48,3.48,0,0,1,220,275.4l5.29-.58a3.48,3.48,0,0,1,3.84,3.08l.7,6.39a28.86,28.86,0,0,1,10,2.89l4-5a3.48,3.48,0,0,1,4.89-.54l4.15,3.33a3.48,3.48,0,0,1,.54,4.89l-4,5a28.64,28.64,0,0,1,5,9.07l6.39-.7a3.49,3.49,0,0,1,3.84,3.07l.58,5.3a3.49,3.49,0,0,1-3.08,3.84l-6.39.7a28.75,28.75,0,0,1-2.89,9.94l5,4h0a3.48,3.48,0,0,1,.54,4.89L255,339.16a3.49,3.49,0,0,1-4.89.54l-5-4a29,29,0,0,1-9.08,5l.7,6.39a3.49,3.49,0,0,1-3.07,3.84l-5.29.58Zm-14.63-14.92.73.39a26.71,26.71,0,0,0,10.72,3.12l.83.06.89,8a1.45,1.45,0,0,0,.54,1,1.52,1.52,0,0,0,1.09.31l5.29-.58a1.49,1.49,0,0,0,1.31-1.63l-.89-8,.8-.24a26.71,26.71,0,0,0,9.78-5.37l.63-.55,6.31,5.06a1.46,1.46,0,0,0,1.08.32,1.5,1.5,0,0,0,1-.55l3.32-4.15a1.48,1.48,0,0,0-.22-2.08h0l-6.31-5.06.39-.73a26.71,26.71,0,0,0,3.12-10.72l.06-.83,8-.88a1.48,1.48,0,0,0,1.3-1.64l-.58-5.29a1.48,1.48,0,0,0-1.63-1.3l-8,.88-.24-.8a26.71,26.71,0,0,0-5.37-9.78l-.55-.63,5.06-6.31a1.45,1.45,0,0,0,.32-1.08,1.48,1.48,0,0,0-.55-1l-4.15-3.33a1.48,1.48,0,0,0-2.08.23l-5.06,6.3-.73-.39a26.71,26.71,0,0,0-10.72-3.12l-.83-.06-.88-8a1.42,1.42,0,0,0-.55-1,1.46,1.46,0,0,0-1.08-.32l-5.29.58A1.47,1.47,0,0,0,218.9,279l.88,8-.79.24a26.68,26.68,0,0,0-9.79,5.37l-.63.55-6.3-5.06a1.47,1.47,0,0,0-2.08.23l-3.33,4.15a1.47,1.47,0,0,0,.23,2.08l6.31,5.06-.4.73a26.71,26.71,0,0,0-3.12,10.72l-.06.83-8,.88a1.49,1.49,0,0,0-1.31,1.64l.58,5.29a1.48,1.48,0,0,0,1.64,1.3l8-.88.24.8a26.59,26.59,0,0,0,5.38,9.78l.54.63-5.06,6.31a1.48,1.48,0,0,0,.23,2.07l4.15,3.33a1.48,1.48,0,0,0,2.08-.23Zm13.46-8a15.38,15.38,0,1,1,12-5.76A15.36,15.36,0,0,1,226.81,328.54Zm0-28.78a12.4,12.4,0,0,0-1.49.08,13.39,13.39,0,0,0-6.92,23.76h0a13.41,13.41,0,0,0,18.83-2.07,13.39,13.39,0,0,0-10.42-21.77Z"/></g><g class="cls-6"><rect class="cls-7" x="0.92" y="107.97" width="98.35" height="159.14" rx="3.43" transform="translate(-2.27 0.62) rotate(-0.7)"/><path class="cls-8" d="M98.68,110.75l.11,9L.44,121l-.11-9.22a3.28,3.28,0,0,1,3.24-3.32l91.61-1.12A3.47,3.47,0,0,1,98.68,110.75Z"/><path class="cls-2" d="M7.1,116.49a2,2,0,1,1,2-2A2,2,0,0,1,7.1,116.49Zm0-3.24a1.22,1.22,0,0,0-1.21,1.22,1.23,1.23,0,0,0,1.23,1.21,1.22,1.22,0,0,0,1.2-1.23A1.2,1.2,0,0,0,7.08,113.25Z"/><path class="cls-2" d="M13.87,116.44a2,2,0,1,1,2-2A2,2,0,0,1,13.87,116.44Zm0-3.24a1.2,1.2,0,0,0-1.2,1.22,1.22,1.22,0,0,0,1.22,1.21,1.23,1.23,0,0,0,1.21-1.23A1.22,1.22,0,0,0,13.84,113.2Z"/><path class="cls-2" d="M20.44,116.39a2,2,0,1,1,2-2A2,2,0,0,1,20.44,116.39Zm0-3.24a1.22,1.22,0,0,0-1.21,1.22,1.23,1.23,0,0,0,1.23,1.21,1.22,1.22,0,0,0,1.2-1.23A1.2,1.2,0,0,0,20.42,113.15Z"/><path class="cls-2" d="M54.32,135l-45.45.35a.82.82,0,0,1-.82-.81.8.8,0,0,1,.8-.81l45.45-.35a.81.81,0,0,1,0,1.62Z"/><path class="cls-8" d="M69.46,134.93,60,135a.81.81,0,0,1-.81-.81.8.8,0,0,1,.8-.81l9.43-.07a.8.8,0,0,1,.82.8A.82.82,0,0,1,69.46,134.93Z"/><path class="cls-2" d="M54.6,172.77l-45.45.35a.81.81,0,0,1-.81-.81.8.8,0,0,1,.8-.81l45.45-.35a.81.81,0,0,1,.81.81A.8.8,0,0,1,54.6,172.77Z"/><path class="cls-9" d="M69.75,172.66l-9.43.07a.81.81,0,1,1,0-1.62l9.43-.07a.79.79,0,0,1,.81.8A.81.81,0,0,1,69.75,172.66Z"/><path class="cls-9" d="M54.45,153.05,9,153.39a.8.8,0,0,1-.81-.8.81.81,0,0,1,.8-.82l45.45-.34a.81.81,0,1,1,0,1.62Z"/><path class="cls-2" d="M69.6,152.93l-9.43.08a.82.82,0,0,1-.82-.81.81.81,0,0,1,.81-.81l9.43-.08a.81.81,0,0,1,.81.81A.79.79,0,0,1,69.6,152.93Z"/><path class="cls-8" d="M85.13,152.82l-9.43.07a.82.82,0,0,1-.82-.81.81.81,0,0,1,.81-.81l9.43-.07a.81.81,0,0,1,.82.8A.82.82,0,0,1,85.13,152.82Z"/><path class="cls-8" d="M39.23,144l-30.3.23a.81.81,0,0,1-.81-.81.8.8,0,0,1,.8-.81l30.3-.23a.81.81,0,0,1,.82.8A.82.82,0,0,1,39.23,144Z"/><path class="cls-10" d="M58.1,143.87,44.81,144a.82.82,0,0,1-.82-.81.8.8,0,0,1,.8-.81l13.3-.11a.81.81,0,0,1,.81.81A.79.79,0,0,1,58.1,143.87Z"/><path class="cls-8" d="M58.24,162.85l-30.3.23a.81.81,0,0,1-.81-.8.8.8,0,0,1,.8-.82l30.3-.23a.81.81,0,1,1,0,1.62Z"/><path class="cls-10" d="M22.37,163.12l-13.29.1a.81.81,0,0,1-.82-.8.82.82,0,0,1,.81-.82l13.29-.1a.81.81,0,0,1,.81.81A.8.8,0,0,1,22.37,163.12Z"/><path class="cls-10" d="M54.7,185.49l-45.45.35a.82.82,0,0,1-.82-.81.81.81,0,0,1,.81-.81l45.44-.35a.81.81,0,0,1,0,1.62Z"/><path class="cls-8" d="M69.85,185.38l-9.44.07a.81.81,0,0,1-.81-.8.8.8,0,0,1,.8-.82l9.43-.07a.8.8,0,0,1,.82.8A.82.82,0,0,1,69.85,185.38Z"/><path class="cls-2" d="M55,223.22l-45.45.35a.81.81,0,0,1,0-1.62L55,221.6a.82.82,0,0,1,.82.81A.81.81,0,0,1,55,223.22Z"/><path class="cls-9" d="M70.13,223.11l-9.43.07a.81.81,0,1,1,0-1.62l9.43-.07a.81.81,0,0,1,.82.8A.82.82,0,0,1,70.13,223.11Z"/><path class="cls-9" d="M54.83,203.5l-45.44.34a.8.8,0,0,1-.82-.8.82.82,0,0,1,.8-.82l45.45-.34a.81.81,0,1,1,0,1.62Z"/><path class="cls-2" d="M70,203.39l-9.43.07a.82.82,0,0,1-.82-.81.81.81,0,0,1,.81-.81l9.43-.07a.81.81,0,0,1,.82.8A.82.82,0,0,1,70,203.39Z"/><path class="cls-8" d="M85.51,203.27l-9.43.07a.81.81,0,1,1,0-1.62l9.43-.07a.81.81,0,0,1,.82.8A.82.82,0,0,1,85.51,203.27Z"/><path class="cls-8" d="M39.61,194.47l-30.29.23a.81.81,0,0,1,0-1.62l30.3-.23a.8.8,0,0,1,.82.8A.82.82,0,0,1,39.61,194.47Z"/><path class="cls-10" d="M58.48,194.32l-13.29.11a.82.82,0,0,1-.82-.81.81.81,0,0,1,.81-.81l13.29-.11a.81.81,0,0,1,.81.81A.79.79,0,0,1,58.48,194.32Z"/><path class="cls-8" d="M58.62,213.3l-30.3.23a.81.81,0,0,1,0-1.62l30.3-.23a.81.81,0,1,1,0,1.62Z"/><path class="cls-10" d="M22.75,213.57l-13.29.1a.81.81,0,0,1-.82-.8.82.82,0,0,1,.81-.82l13.29-.1a.81.81,0,0,1,.81.81A.8.8,0,0,1,22.75,213.57Z"/><path class="cls-10" d="M55.07,234.89l-45.45.34a.8.8,0,0,1-.81-.8.81.81,0,0,1,.8-.82l45.45-.34a.81.81,0,0,1,0,1.62Z"/><path class="cls-8" d="M70.22,234.78l-9.43.07A.82.82,0,0,1,60,234a.81.81,0,0,1,.81-.81l9.43-.07a.79.79,0,0,1,.81.8A.81.81,0,0,1,70.22,234.78Z"/><path class="cls-2" d="M70.4,258.6l-9.43.07a.81.81,0,1,1,0-1.62l9.43-.07a.81.81,0,0,1,0,1.62Z"/><path class="cls-8" d="M85.93,258.48l-9.43.07a.81.81,0,0,1-.82-.8.82.82,0,0,1,.81-.82l9.43-.07a.82.82,0,0,1,.82.81A.81.81,0,0,1,85.93,258.48Z"/><path class="cls-8" d="M40,243.87l-30.3.23a.82.82,0,0,1-.82-.81.81.81,0,0,1,.81-.81l30.3-.23a.8.8,0,0,1,.81.8A.81.81,0,0,1,40,243.87Z"/><path class="cls-10" d="M58.85,243.72l-13.29.1a.8.8,0,0,1-.81-.8.81.81,0,0,1,.8-.82l13.29-.1a.82.82,0,0,1,.82.81A.81.81,0,0,1,58.85,243.72Z"/></g><polygon class="cls-11" points="84.4 54.47 85.43 57.98 85.43 53.3 84.4 54.47"/><polygon class="cls-11" points="85.53 283.77 85.53 279.1 84.5 282.61 85.53 283.77"/><path class="cls-12" d="M85.42,33.17V58l0,55.88,0,109.35,0,55.89v18.27a14.37,14.37,0,0,0,14.34,14.32h10.21l112.43-.05a14.34,14.34,0,0,0,14.31-14.34l-.11-264.2a14.35,14.35,0,0,0-14.33-14.32l-122.64.06A14.32,14.32,0,0,0,85.42,33.17Z"/><path class="cls-8" d="M86.47,38.18v24l0,54.06,0,105.8,0,54.06v17.68a13.87,13.87,0,0,0,9.18,13,14.48,14.48,0,0,0,4.95.89h10.07l110.87-.05a14.25,14.25,0,0,0,8-2.43,13.8,13.8,0,0,0,6.14-11.43l-.12-255.61a13.7,13.7,0,0,0-5-10.61,14.23,14.23,0,0,0-9.08-3.24l-120.94,0A14,14,0,0,0,86.47,38.18Z"/><path class="cls-2" d="M228.81,59l.1,212.33a3.44,3.44,0,0,1-3.44,3.44l-128.6.06a3.44,3.44,0,0,1-3.44-3.44L93.34,59.1a3.43,3.43,0,0,1,3.43-3.43l128.61-.06A3.44,3.44,0,0,1,228.81,59Z"/><path class="cls-9" d="M228.81,59V72.72l-135.48.06V58.85a3.28,3.28,0,0,1,3.28-3.29l128.73-.06A3.46,3.46,0,0,1,228.81,59Z"/><path class="cls-2" d="M212.09,62.19a.5.5,0,0,1-.5-.5.5.5,0,0,1,.5-.5h10.16a.5.5,0,0,1,.5.5.5.5,0,0,1-.5.5Z"/><path class="cls-2" d="M212.09,64.78a.5.5,0,0,1-.5-.5.5.5,0,0,1,.5-.5h10.16a.5.5,0,0,1,0,1Z"/><path class="cls-2" d="M212.09,67.38a.5.5,0,0,1,0-1h10.16a.5.5,0,0,1,.5.5.5.5,0,0,1-.5.5Z"/><path class="cls-2" d="M105.45,69a.47.47,0,0,1-.35-.15l-3.7-3.69a.83.83,0,0,1,0-1.15L105,60.5a.5.5,0,0,1,.71,0,.5.5,0,0,1,0,.7l-3.42,3.42,3.56,3.56a.5.5,0,0,1,0,.71A.47.47,0,0,1,105.45,69Z"/><path class="cls-2" d="M161.19,42.9a3.67,3.67,0,0,1,0-7.33h0a3.67,3.67,0,1,1,0,7.33Zm0-5.78h0a2.12,2.12,0,0,0,0,4.23h0a2.12,2.12,0,0,0,0-4.23Z"/><path class="cls-2" d="M157.71,301.22a2.36,2.36,0,0,1-2.36-2.36v-6.95a2.35,2.35,0,0,1,2.35-2.35h7a2.36,2.36,0,0,1,2.36,2.35v6.95a2.35,2.35,0,0,1-2.35,2.35Zm6.94-10.66h-7a1.36,1.36,0,0,0-1.35,1.35v6.95a1.36,1.36,0,0,0,1.36,1.36h6.95a1.35,1.35,0,0,0,1.35-1.35v-6.95A1.35,1.35,0,0,0,164.65,290.56Z"/><path class="cls-2" d="M115.84,291.69a.5.5,0,0,1-.5-.5.5.5,0,0,1,.5-.5h6.69a.5.5,0,1,1,0,1Z"/><path class="cls-2" d="M115.84,295.31a.5.5,0,0,1-.5-.5.5.5,0,0,1,.5-.5h6.69a.51.51,0,0,1,.5.5.5.5,0,0,1-.5.5Z"/><path class="cls-2" d="M115.84,299a.5.5,0,0,1-.5-.5.5.5,0,0,1,.5-.5h6.69a.5.5,0,0,1,.5.5.5.5,0,0,1-.5.5Z"/><path class="cls-2" d="M208.22,301.19a.46.46,0,0,1-.35-.14l-5.26-5.26,5.12-5.13a.5.5,0,1,1,.71.71L204,295.79l4.55,4.55a.5.5,0,0,1,0,.71A.46.46,0,0,1,208.22,301.19Z"/><rect class="cls-13" x="93.56" y="72.96" width="135.27" height="44.3"/><rect class="cls-14" x="104.63" y="81.92" width="51.39" height="10.98" rx="1.41"/><rect class="cls-14" x="104.63" y="99.05" width="78.07" height="5.49" rx="1.41"/><path class="cls-14" d="M212.17,103.61a10.39,10.39,0,1,1,0-20.77h0a10.4,10.4,0,0,1,10.39,10.38h0a10.38,10.38,0,0,1-10.39,10.39Zm0-18.77h0a8.39,8.39,0,1,0,0,16.77h0a8.38,8.38,0,0,0,8.39-8.39h0a8.38,8.38,0,0,0-8.39-8.38Z"/><rect class="cls-12" x="105.53" y="133.34" width="31.49" height="31.49" rx="4.56"/><g class="cls-15"><path class="cls-9" d="M128.07,149.24a6.8,6.8,0,1,1-6.79-6.8A6.78,6.78,0,0,1,128.07,149.24Z"/></g><g class="cls-16"><rect class="cls-8" x="142.5" y="138.24" width="19.98" height="5.65" rx="1.14"/><path class="cls-8" d="M142.51,152.57a1,1,0,0,1,0-2l34.1,0h0a1,1,0,0,1,0,2l-34.1,0Z"/><path class="cls-8" d="M142.51,159.7a1,1,0,0,1,0-2l55.61,0h0a1,1,0,0,1,0,2l-55.61,0Z"/><path class="cls-8" d="M184.21,152.55a1,1,0,1,1,0-2l34.11,0h0a1,1,0,0,1,0,2l-34.11,0Z"/></g><rect class="cls-9" x="105.58" y="224.95" width="31.49" height="31.49" rx="4.56"/><g class="cls-17"><path class="cls-8" d="M128.11,240.84a6.8,6.8,0,1,1-6.79-6.79A6.79,6.79,0,0,1,128.11,240.84Z"/></g><g class="cls-16"><rect class="cls-8" x="142.54" y="229.84" width="19.98" height="5.65" rx="1.14"/><path class="cls-8" d="M142.55,244.17a1,1,0,0,1,0-2h34.1a1,1,0,0,1,0,2Z"/><path class="cls-8" d="M142.55,251.31a1,1,0,0,1,0-2l55.61,0h0a1,1,0,0,1,0,2l-55.61,0Z"/><path class="cls-8" d="M184.25,244.15a1,1,0,0,1,0-2h34.11a1,1,0,0,1,0,2Z"/></g><rect class="cls-10" x="105.56" y="179.04" width="31.49" height="31.49" rx="4.56"/><circle class="cls-14" cx="121.3" cy="194.94" r="6.8"/><g class="cls-16"><rect class="cls-8" x="142.52" y="183.93" width="19.98" height="5.65" rx="1.14"/><path class="cls-8" d="M142.53,198.26a1,1,0,1,1,0-2H158.3a1,1,0,0,1,0,2Z"/><path class="cls-8" d="M142.53,205.4a1,1,0,0,1,0-2H174.9a1,1,0,0,1,0,2Z"/><path class="cls-8" d="M164.9,198.25a1,1,0,1,1,0-2h31.5a1,1,0,0,1,0,2Z"/><path class="cls-8" d="M202.26,198.24a1,1,0,0,1,0-2H218a1,1,0,0,1,0,2Z"/></g><rect class="cls-18" x="261.38" y="207.99" width="70.83" height="114.6" rx="3.43" transform="matrix(1, -0.01, 0.01, 1, -3.2, 3.63)"/><rect class="cls-19" x="261.38" y="207.99" width="70.83" height="114.6" rx="3.43" transform="matrix(1, -0.01, 0.01, 1, -3.2, 3.63)"/><path class="cls-10" d="M331.79,211l.07,5.55-70.82.86-.07-5.72a3.28,3.28,0,0,1,3.24-3.32l64.08-.78A3.45,3.45,0,0,1,331.79,211Z"/><path class="cls-2" d="M265.83,214.13a1.46,1.46,0,1,1,1.45-1.47A1.45,1.45,0,0,1,265.83,214.13Zm0-2.33a.87.87,0,0,0-.87.88.88.88,0,1,0,.87-.88Z"/><path class="cls-2" d="M270.7,214.09a1.46,1.46,0,1,1,1.45-1.47A1.45,1.45,0,0,1,270.7,214.09Zm0-2.33a.88.88,0,0,0,0,1.75.89.89,0,0,0,.87-.88A.87.87,0,0,0,270.69,211.76Z"/><path class="cls-2" d="M275.44,214.06a1.46,1.46,0,1,1,1.45-1.47A1.47,1.47,0,0,1,275.44,214.06Zm0-2.34a.89.89,0,0,0-.87.88.87.87,0,0,0,.89.87.88.88,0,0,0,0-1.75Z"/><path class="cls-2" d="M299.83,227.49l-32.73.25a.59.59,0,0,1,0-1.17l32.72-.25a.58.58,0,0,1,.59.58A.58.58,0,0,1,299.83,227.49Z"/><path class="cls-2" d="M310.74,227.41l-6.79.05a.59.59,0,0,1,0-1.17l6.79,0a.59.59,0,0,1,0,1.17Z"/><path class="cls-2" d="M300,254.66l-32.73.25a.59.59,0,0,1-.59-.58.6.6,0,0,1,.58-.59L300,253.5a.57.57,0,0,1,.59.57A.58.58,0,0,1,300,254.66Z"/><path class="cls-2" d="M311,254.58l-6.79,0a.58.58,0,0,1-.59-.58.6.6,0,0,1,.58-.59l6.79-.05a.59.59,0,1,1,0,1.17Z"/><path class="cls-2" d="M299.93,240.46l-32.73.25a.6.6,0,0,1-.59-.58.59.59,0,0,1,.58-.59l32.73-.25a.58.58,0,0,1,.59.58A.59.59,0,0,1,299.93,240.46Z"/><path class="cls-2" d="M310.84,240.38l-6.79.05a.59.59,0,0,1,0-1.17l6.79,0a.58.58,0,0,1,.59.58A.6.6,0,0,1,310.84,240.38Z"/><path class="cls-2" d="M322,240.29l-6.8.05a.58.58,0,0,1,0-1.16l6.8-.06a.58.58,0,0,1,.58.58A.57.57,0,0,1,322,240.29Z"/><path class="cls-2" d="M289,234l-21.82.17a.59.59,0,1,1,0-1.17l21.82-.16a.58.58,0,1,1,0,1.16Z"/><path class="cls-2" d="M302.56,233.85l-9.57.07a.57.57,0,0,1-.59-.57.58.58,0,0,1,.58-.59l9.57-.08a.6.6,0,0,1,.59.58A.58.58,0,0,1,302.56,233.85Z"/><path class="cls-2" d="M302.66,247.52l-21.82.16a.59.59,0,0,1-.59-.58.58.58,0,0,1,.58-.58l21.82-.17a.59.59,0,0,1,.59.58A.6.6,0,0,1,302.66,247.52Z"/><path class="cls-2" d="M276.83,247.71l-9.57.07a.57.57,0,0,1-.59-.57.58.58,0,0,1,.58-.59l9.57-.07a.58.58,0,1,1,0,1.16Z"/><path class="cls-2" d="M300.11,263.82l-32.73.25a.59.59,0,0,1-.59-.58.6.6,0,0,1,.58-.59l32.73-.24a.57.57,0,0,1,.59.57A.58.58,0,0,1,300.11,263.82Z"/><path class="cls-2" d="M311,263.74l-6.79.05a.58.58,0,0,1-.59-.58.59.59,0,0,1,.58-.59l6.79-.05a.6.6,0,0,1,.59.58A.59.59,0,0,1,311,263.74Z"/><path class="cls-2" d="M300.31,291l-32.73.25a.57.57,0,0,1-.58-.58.57.57,0,0,1,.58-.58l32.73-.25a.57.57,0,0,1,.58.58A.57.57,0,0,1,300.31,291Z"/><path class="cls-2" d="M311.22,290.91l-6.79,0a.58.58,0,1,1,0-1.16l6.8-.06a.58.58,0,0,1,.58.58A.57.57,0,0,1,311.22,290.91Z"/><path class="cls-2" d="M300.21,276.79l-32.73.25a.59.59,0,1,1,0-1.17l32.73-.25a.6.6,0,0,1,.59.58A.58.58,0,0,1,300.21,276.79Z"/><path class="cls-2" d="M311.12,276.71l-6.8.05a.59.59,0,0,1,0-1.17l6.8,0a.6.6,0,0,1,.59.58A.59.59,0,0,1,311.12,276.71Z"/><path class="cls-2" d="M322.3,276.62l-6.79.06a.59.59,0,0,1-.59-.58.58.58,0,0,1,.58-.59l6.79-.05a.58.58,0,1,1,0,1.16Z"/><path class="cls-2" d="M289.25,270.29l-21.82.16a.59.59,0,0,1-.59-.58.6.6,0,0,1,.58-.59l21.82-.16a.59.59,0,0,1,0,1.17Z"/><path class="cls-2" d="M302.83,270.18l-9.57.08a.6.6,0,0,1-.59-.58.58.58,0,0,1,.58-.59l9.57-.07a.58.58,0,1,1,0,1.16Z"/><path class="cls-2" d="M302.94,283.85l-21.82.16a.57.57,0,0,1-.59-.58.58.58,0,0,1,.58-.58l21.82-.17a.6.6,0,0,1,.59.58A.59.59,0,0,1,302.94,283.85Z"/><path class="cls-2" d="M277.1,284l-9.57.08a.6.6,0,0,1-.59-.58.59.59,0,0,1,.58-.59l9.57-.07a.58.58,0,1,1,0,1.16Z"/><path class="cls-2" d="M300.38,299.4l-32.73.24a.57.57,0,0,1-.59-.57.58.58,0,0,1,.58-.59l32.73-.25a.59.59,0,0,1,0,1.17Z"/><path class="cls-2" d="M311.29,299.31l-6.8.06a.58.58,0,0,1-.58-.58.57.57,0,0,1,.58-.59l6.79-.05a.58.58,0,1,1,0,1.16Z"/><path class="cls-2" d="M311.42,316.47l-6.8,0a.57.57,0,0,1-.58-.58.57.57,0,0,1,.58-.58l6.79-.06a.6.6,0,0,1,.59.58A.58.58,0,0,1,311.42,316.47Z"/><path class="cls-2" d="M322.6,316.39l-6.79.05a.59.59,0,1,1,0-1.17l6.79,0a.58.58,0,0,1,.59.58A.6.6,0,0,1,322.6,316.39Z"/><path class="cls-2" d="M289.52,305.86,267.7,306a.59.59,0,1,1,0-1.17l21.82-.17a.6.6,0,0,1,.59.58A.59.59,0,0,1,289.52,305.86Z"/><path class="cls-2" d="M303.1,305.76l-9.57.07a.59.59,0,1,1,0-1.17l9.57-.07a.58.58,0,0,1,.59.58A.6.6,0,0,1,303.1,305.76Z"/><rect class="cls-20" x="268.27" y="43.7" width="83.88" height="135.72" rx="3.43" transform="translate(-1.12 3.17) rotate(-0.59)"/><rect class="cls-2" x="263.68" y="37.74" width="83.88" height="135.72" rx="3.43" transform="translate(-1.06 3.13) rotate(-0.59)"/><path class="cls-9" d="M347.18,40.7l.08,7.21-83.88.85-.07-7.37a3.28,3.28,0,0,1,3.25-3.32l77.13-.79A3.45,3.45,0,0,1,347.18,40.7Z"/><path class="cls-2" d="M336.83,41.68a.51.51,0,0,1-.5-.5.5.5,0,0,1,.5-.5l6.29-.07a.49.49,0,0,1,.5.5.49.49,0,0,1-.49.5l-6.29.07Z"/><path class="cls-2" d="M336.85,43.28a.5.5,0,0,1-.5-.49.51.51,0,0,1,.5-.51l6.29-.06a.54.54,0,0,1,.5.49.5.5,0,0,1-.49.51l-6.29.06Z"/><path class="cls-2" d="M336.87,44.89a.5.5,0,0,1,0-1l6.29-.06h0a.5.5,0,1,1,0,1l-6.29.06Z"/><path class="cls-2" d="M270.85,46.56a.54.54,0,0,1-.35-.14l-2.31-2.26a.72.72,0,0,1,0-1L270.36,41a.5.5,0,0,1,.71,0,.49.49,0,0,1,0,.7l-2,2,2.09,2.05a.5.5,0,0,1-.35.86Z"/><path class="cls-13" d="M344.64,173.29l-77.27.43a3.37,3.37,0,0,1-3.39-3.35l-.15-26.78,84-.47.15,26.77A3.38,3.38,0,0,1,344.64,173.29Z"/><rect class="cls-12" x="287.4" y="61.2" width="35.99" height="5.93" rx="1.12" transform="translate(-0.36 1.72) rotate(-0.32)"/><rect class="cls-21" x="273.28" y="80.73" width="64.47" height="10.63" rx="4.73" transform="translate(-0.48 1.72) rotate(-0.32)"/><path class="cls-14" d="M282.11,86.21A3.27,3.27,0,1,1,278.82,83,3.27,3.27,0,0,1,282.11,86.21Z"/><path class="cls-2" d="M280,85.29a1.18,1.18,0,1,1-1.18-1.17A1.17,1.17,0,0,1,280,85.29Z"/><path class="cls-2" d="M280.6,88.33l-3.5,0v-.43a1.82,1.82,0,0,1,1.82-1.84h0a1.65,1.65,0,0,1,1.67,1.65Z"/><rect class="cls-21" x="273.38" y="98.04" width="64.47" height="10.63" rx="4.73" transform="translate(-0.58 1.72) rotate(-0.32)"/><path class="cls-14" d="M282.21,103.52a3.28,3.28,0,1,1-3.29-3.25A3.27,3.27,0,0,1,282.21,103.52Z"/><rect class="cls-2" x="277.52" y="103" width="2.84" height="2.6" rx="0.32" transform="translate(-0.58 1.56) rotate(-0.32)"/><path class="cls-2" d="M277.79,103.24v-.81a.82.82,0,0,1,.8-.8h.75a.72.72,0,0,1,.71.72v.89h-.25v-.89a.49.49,0,0,0-.13-.33.47.47,0,0,0-.33-.14h-.75a.55.55,0,0,0-.55.55v.81Z"/><path class="cls-10" d="M318.67,127.85l-23.73.13a5.21,5.21,0,0,1-5.23-5.17h0a5.2,5.2,0,0,1,5.17-5.23l23.73-.14a5.21,5.21,0,0,1,5.23,5.18h0A5.2,5.2,0,0,1,318.67,127.85Z"/><path class="cls-2" d="M282.94,154.63a1,1,0,0,1,0-2l45.92-.26h0a1,1,0,0,1,1,1,1,1,0,0,1-1,1l-45.92.26Z"/><path class="cls-2" d="M292.28,161.54a1,1,0,0,1,0-2l27.3-.16h0a1,1,0,0,1,1,1,1,1,0,0,1-1,1l-27.3.16Z"/><rect class="cls-20" x="209.62" y="131.18" width="83.88" height="135.72" rx="3.43" transform="translate(-2.02 2.58) rotate(-0.59)"/><rect class="cls-2" x="205.04" y="125.21" width="83.88" height="135.72" rx="3.43" transform="matrix(1, -0.01, 0.01, 1, -1.96, 2.53)"/><rect class="cls-22" x="205.04" y="125.21" width="83.88" height="135.72" rx="3.43" transform="matrix(1, -0.01, 0.01, 1, -1.96, 2.53)"/><path class="cls-9" d="M288.54,128.17l.07,7.21-83.87.85-.08-7.37a3.28,3.28,0,0,1,3.25-3.32l77.14-.79A3.46,3.46,0,0,1,288.54,128.17Z"/><path class="cls-2" d="M278.19,129.15a.5.5,0,0,1-.5-.5.49.49,0,0,1,.49-.5l6.29-.07a.55.55,0,0,1,.51.5.5.5,0,0,1-.5.5l-6.29.07Z"/><path class="cls-2" d="M278.2,130.75a.5.5,0,1,1,0-1l6.29-.06h0a.5.5,0,0,1,0,1l-6.29.06Z"/><path class="cls-2" d="M278.22,132.36a.5.5,0,0,1,0-1l6.3-.06h0a.5.5,0,0,1,.5.49.51.51,0,0,1-.49.51l-6.3.06Z"/><path class="cls-2" d="M212.21,134a.5.5,0,0,1-.35-.14l-2.31-2.26a.69.69,0,0,1,0-1l2.18-2.23a.5.5,0,0,1,.71,0,.49.49,0,0,1,0,.7l-2,2,2.1,2a.5.5,0,0,1,0,.71A.49.49,0,0,1,212.21,134Z"/><g class="cls-15"><path class="cls-2" d="M286,260.76l-77.26.43a3.37,3.37,0,0,1-3.4-3.35l-.15-26.78,84-.47.15,26.77A3.38,3.38,0,0,1,286,260.76Z"/><path class="cls-2" d="M208.7,261.69a3.82,3.82,0,0,1-2.72-1.12,3.86,3.86,0,0,1-1.15-2.73l-.15-27.28,85-.47.16,27.27a3.88,3.88,0,0,1-3.85,3.9l-77.27.43Zm-3-30.13.15,26.27a2.87,2.87,0,0,0,.86,2,2.82,2.82,0,0,0,2,.83h0l77.27-.43a2.89,2.89,0,0,0,2.86-2.89l-.15-26.28Z"/></g><rect class="cls-2" x="244.39" y="118.87" width="9.94" height="64.47" rx="1.95" transform="translate(97.94 400.27) rotate(-89.93)"/><path class="cls-2" d="M279.93,163.82l-61.18-.08a1.64,1.64,0,0,1-1.64-1.65h0a1.64,1.64,0,0,1,1.65-1.64l61.17.07a1.65,1.65,0,0,1,1.65,1.65h0A1.65,1.65,0,0,1,279.93,163.82Z"/><path class="cls-2" d="M279.92,171.42l-61.17-.08a1.65,1.65,0,0,1-1.65-1.65h0a1.64,1.64,0,0,1,1.65-1.64l61.17.07a1.65,1.65,0,0,1,1.65,1.65h0A1.65,1.65,0,0,1,279.92,171.42Z"/><path class="cls-10" d="M225.38,182.55a4.15,4.15,0,1,1-4.14-4.15A4.15,4.15,0,0,1,225.38,182.55Z"/><path class="cls-10" d="M225.36,201.36a4.15,4.15,0,1,1-4.15-4.16A4.16,4.16,0,0,1,225.36,201.36Z"/><path class="cls-10" d="M225.33,219.6a4.15,4.15,0,1,1-4.14-4.15A4.14,4.14,0,0,1,225.33,219.6Z"/><path class="cls-2" d="M267.41,181.08h0L227.73,181a.5.5,0,0,1-.5-.5.51.51,0,0,1,.5-.5h0l39.68.05a.5.5,0,0,1,.5.5A.5.5,0,0,1,267.41,181.08Z"/><path class="cls-2" d="M247.57,185.28h0l-19.83,0a.5.5,0,0,1-.5-.5.5.5,0,0,1,.5-.5h0l19.84,0a.5.5,0,0,1,.5.5A.51.51,0,0,1,247.57,185.28Z"/><path class="cls-2" d="M267.39,200.5h0l-39.68-.05a.5.5,0,1,1,0-1h0l39.68.05a.5.5,0,0,1,0,1Z"/><path class="cls-2" d="M247.54,204.7h0l-19.84,0a.5.5,0,0,1-.5-.5.51.51,0,0,1,.5-.5h0l19.84,0a.5.5,0,0,1,.5.5A.5.5,0,0,1,247.54,204.7Z"/><path class="cls-2" d="M267.36,218.23h0l-39.68,0a.5.5,0,0,1,0-1h0l39.68,0a.5.5,0,0,1,0,1Z"/><path class="cls-2" d="M247.52,222.43h0l-19.84,0a.5.5,0,0,1-.5-.5.5.5,0,0,1,.5-.5h0l19.84,0a.5.5,0,0,1,.5.5A.5.5,0,0,1,247.52,222.43Z"/><path class="cls-2" d="M224.29,242.1a1,1,0,0,1,0-2l45.92-.26h0a1,1,0,0,1,0,2l-45.92.26Z"/><path class="cls-2" d="M233.63,249a1,1,0,0,1,0-2l27.3-.16h0a1,1,0,0,1,0,2l-27.3.16Z"/><rect class="cls-9" x="37.81" y="82.66" width="74.91" height="24.06" rx="1.61"/><path class="cls-10" d="M50.4,102a7.75,7.75,0,1,1,7.75-7.74A7.75,7.75,0,0,1,50.4,102Z"/><path class="cls-2" d="M49.72,97.15l-2.9-4a.76.76,0,0,1,.74-1.2.75.75,0,0,1,.5.3l1.85,2.55,9.21-9.21a.76.76,0,0,1,.54-.22h0a.77.77,0,0,1,.54.22.76.76,0,0,1,0,1.08Z"/><line class="cls-2" x1="64.71" y1="90.72" x2="103.04" y2="90.72"/><path class="cls-23" d="M103,91.22H64.71a.5.5,0,0,1,0-1H103a.5.5,0,0,1,0,1Z"/><line class="cls-2" x1="64.71" y1="95.27" x2="81.83" y2="95.27"/><path class="cls-23" d="M81.83,95.77H64.71a.5.5,0,0,1-.5-.5.5.5,0,0,1,.5-.5H81.83a.5.5,0,0,1,.5.5A.5.5,0,0,1,81.83,95.77Z"/><line class="cls-2" x1="85.91" y1="95.27" x2="103.04" y2="95.27"/><path class="cls-23" d="M103,95.77H85.91a.5.5,0,0,1-.5-.5.5.5,0,0,1,.5-.5H103a.5.5,0,0,1,.5.5A.51.51,0,0,1,103,95.77Z"/><line class="cls-2" x1="64.71" y1="100.03" x2="103.04" y2="100.03"/><path class="cls-23" d="M103,100.53H64.71a.5.5,0,0,1-.5-.5.5.5,0,0,1,.5-.5H103a.5.5,0,0,1,.5.5A.51.51,0,0,1,103,100.53Z"/><rect class="cls-9" x="312" y="193.22" width="74.91" height="24.06" rx="1.61"/><path class="cls-10" d="M324.59,212.54a7.75,7.75,0,1,1,7.75-7.75A7.75,7.75,0,0,1,324.59,212.54Z"/><path class="cls-2" d="M323.91,207.7l-2.9-4a.74.74,0,0,1-.14-.56.8.8,0,0,1,.31-.5.78.78,0,0,1,.57-.14.75.75,0,0,1,.5.31l1.85,2.55,9.21-9.21a.76.76,0,1,1,1.08,1.08Zm-2.47-4.32h0Z"/><line class="cls-2" x1="338.9" y1="201.27" x2="377.22" y2="201.27"/><path class="cls-23" d="M377.22,201.77H338.9a.5.5,0,0,1-.5-.5.5.5,0,0,1,.5-.5h38.32a.5.5,0,0,1,.5.5A.5.5,0,0,1,377.22,201.77Z"/><line class="cls-2" x1="338.9" y1="205.82" x2="356.02" y2="205.82"/><path class="cls-23" d="M356,206.32H338.9a.5.5,0,0,1-.5-.5.5.5,0,0,1,.5-.5H356a.5.5,0,0,1,.5.5A.5.5,0,0,1,356,206.32Z"/><line class="cls-2" x1="360.1" y1="205.82" x2="377.22" y2="205.82"/><path class="cls-23" d="M377.22,206.32H360.1a.5.5,0,0,1-.5-.5.5.5,0,0,1,.5-.5h17.12a.5.5,0,0,1,.5.5A.5.5,0,0,1,377.22,206.32Z"/><line class="cls-2" x1="338.9" y1="210.58" x2="377.22" y2="210.58"/><path class="cls-23" d="M377.22,211.08H338.9a.5.5,0,0,1,0-1h38.32a.5.5,0,0,1,0,1Z"/></g></g></svg>