<svg xmlns="http://www.w3.org/2000/svg" viewBox="0 0 458.94 442.04"><defs><style>.cls-1{opacity:0.41;}.cls-2,.cls-5,.cls-6{fill:#e1e2fe;}.cls-3{opacity:0.31;}.cls-4{fill:#ecf1f7;}.cls-4,.cls-5{opacity:0.47;}.cls-6{opacity:0.81;}.cls-16,.cls-28,.cls-7{fill:#3e479b;}.cls-7,.cls-8{opacity:0.58;}.cls-8{fill:#ef929c;}.cls-9{opacity:0.73;}.cls-10,.cls-22,.cls-26,.cls-31{fill:#fff;}.cls-11{opacity:0.69;}.cls-12{opacity:0.55;}.cls-13,.cls-31{opacity:0.38;}.cls-14{opacity:0.61;}.cls-15{fill:#6d6cd4;opacity:0.74;}.cls-17,.cls-21,.cls-29,.cls-30{fill:#599af2;}.cls-18,.cls-27{fill:#f7a9b4;}.cls-19{fill:none;}.cls-20{fill:#4c65ba;}.cls-21,.cls-23{opacity:0.36;}.cls-22{opacity:0.43;}.cls-24{opacity:0.26;}.cls-25{opacity:0.57;}.cls-26,.cls-27{opacity:0.39;}.cls-28{opacity:0.22;}.cls-29{opacity:0.32;}.cls-30{opacity:0.42;}</style></defs><title>app-mobile</title><g id="Layer_2" data-name="Layer 2"><g id="BACKGROUND"><g class="cls-1"><path class="cls-2" d="M458.67,274.17a129.47,129.47,0,0,0-.59-22.1c-3.9-34.45-21.58-66.94-47.59-89.86-9.28-8.18-19.84-15.5-25.88-26.3-10.17-18.18-9.4-39.07-22-57a106.75,106.75,0,0,0-51.83-39.18C248.84,18.26,162.14,53.2,169.94,127.81c0,.26.06.65.1,1.15a27.16,27.16,0,0,1-26.61,28.89C86.29,159.21,37.11,203.26,26.59,259.06c-6.77,35.88,4.31,75.22,30.56,100.6C76.75,378.61,103,389,129.34,396.18,182.08,410.52,237.58,413.53,292,408c50.9-5.13,104.59-19.77,137.51-58.93C447,328.22,457.09,301.43,458.67,274.17Z"/></g><g class="cls-3"><circle class="cls-2" cx="196.98" cy="21.08" r="13.29" transform="translate(6.74 76.35) rotate(-22.31)"/></g><g class="cls-3"><circle class="cls-2" cx="449.52" cy="176.62" r="6.86"/></g><g class="cls-3"><circle class="cls-2" cx="134.48" cy="50.84" r="9.19" transform="translate(7.18 117.66) rotate(-48.4)"/></g><g class="cls-3"><circle class="cls-2" cx="28.5" cy="384.17" r="20.93"/></g><path class="cls-4" d="M456.32,70.7a23.64,23.64,0,0,0-10.24-31.84c-11.62-6-33.95-5.53-39.91,6.09s11.92,21.59,19.21,32.43C435.55,92.49,450.36,82.32,456.32,70.7Z"/><path class="cls-5" d="M402.53,416.57a18.12,18.12,0,0,0,25.05-5.39c5.43-8.41,6.78-25.47-1.63-30.89s-17.36,7.45-26.17,12.19C387.48,399.09,394.12,411.15,402.53,416.57Z"/><path class="cls-5" d="M59.36,6.11A22.84,22.84,0,0,0,27.07,7.3c-8.59,9.25-14,30.13-4.78,38.72s23.2-5.44,35.19-9.39C74.2,31.13,68.61,14.69,59.36,6.11Z"/><path class="cls-5" d="M433.62,327.65c8.16-17.53,11.41-37,7.2-57.52-4.66-22.68-18.77-40.1-13.87-64.29,3-14.74,3.73-28.39,5.24-43,3.11-29.94-16.33-56.32-40.45-70.57-19.59-11.57-42.55-15.91-65.07-15.6-20.27.28-40.5,4-60.14,9.06C247.61,90.6,229.1,97,209.26,95c-16.5-1.68-31.36-8.81-46.72-14.13-36.69-12.7-81.13-14.49-114.67,4.84A96.76,96.76,0,0,0,2.57,191.08c3.7,16.36,9.45,32.39,9.29,49.37-.17,17.32-9.08,32.78-5.57,50.59,2.48,12.6,10,23.66,18.78,33.07,24,25.9,57.6,41.54,92.14,49,46,9.91,92.87.44,138.45,10.31,29.89,6.47,59.48,18.95,90.6,14.07,19.44-3.05,37.54-12.55,52.48-25.35C413.4,359.56,425.78,344.49,433.62,327.65Z"/><path class="cls-6" d="M391.66,300.06c1.27-14.29-3.55-29,.48-43.17,4.83-16.95,18.79-29.64,24.48-46.28,8.41-24.58,8-52.13-2.21-76.08-4.92-11.55-12.11-22.28-21.93-29.7-15.14-11.44-35-14-53.63-12.5-27.76,2.16-57.06,14.18-85,10.9-15.41-1.8-20.11-18.48-28.07-29.47A92.25,92.25,0,0,0,191,45c-24.95-12-54.9-13.11-80.4-2.25-27.22,11.6-50.95,39.92-49.39,71.94.72,14.82,6.65,29.53,3.9,44.09-3.44,18.27-17.21,34.92-27.18,49.8a114.83,114.83,0,0,0-19,56c0,.23,0,.46,0,.68a76.31,76.31,0,0,0,52.55,76.77l69.86,23C212.2,388.4,283,387.63,348.2,353.42,362.3,346,385.27,324,390,308.74A41.56,41.56,0,0,0,391.66,300.06Z"/><circle class="cls-7" cx="447.48" cy="359.05" r="4.5"/><circle class="cls-7" cx="239.6" cy="8.33" r="4.5"/><circle class="cls-7" cx="77.03" cy="400.55" r="4.5"/><circle class="cls-8" cx="361.06" cy="419.47" r="3.5"/><circle class="cls-8" cx="431.95" cy="437.54" r="4.5"/><circle class="cls-7" cx="56.22" cy="60.03" r="1.5"/><path class="cls-8" d="M376.69,40.23a5.4,5.4,0,1,1-4.16-6.41A5.4,5.4,0,0,1,376.69,40.23Z"/><path class="cls-8" d="M87.9,13.28a2.12,2.12,0,1,1-1.63-2.52A2.13,2.13,0,0,1,87.9,13.28Z"/><path class="cls-7" d="M425.65,6.49a1.8,1.8,0,1,1-1.38-2.13A1.79,1.79,0,0,1,425.65,6.49Z"/><path class="cls-7" d="M44.6,436.12A1.8,1.8,0,1,1,43.22,434,1.8,1.8,0,0,1,44.6,436.12Z"/></g><g id="OBJECTS"><g class="cls-9"><path class="cls-10" d="M107.73,176.52a5.66,5.66,0,0,1-1.47-.2l-8.4-2.3A5.56,5.56,0,0,1,94,167.2l2.81-10.26a47,47,0,0,1-13.53-10.49L74,151.71a5.54,5.54,0,0,1-7.58-2.07l-4.31-7.57a5.56,5.56,0,0,1,2.07-7.58l9.24-5.27a46.51,46.51,0,0,1-2.14-17L61,109.43a5.56,5.56,0,0,1-3.9-6.82l2.3-8.4a5.57,5.57,0,0,1,6.83-3.9l10.26,2.81A46.69,46.69,0,0,1,87,79.59l-5.27-9.23a5.55,5.55,0,0,1-.53-4.22,5.48,5.48,0,0,1,2.61-3.36l7.56-4.32A5.56,5.56,0,0,1,99,60.53l5.27,9.24a47,47,0,0,1,17-2.14L124,57.37a5.56,5.56,0,0,1,6.83-3.89l8.4,2.29a5.57,5.57,0,0,1,3.89,6.83l-2.81,10.26a46.87,46.87,0,0,1,13.53,10.49l9.24-5.27a5.56,5.56,0,0,1,7.58,2.08L175,87.72a5.54,5.54,0,0,1-2.07,7.58l-9.24,5.27a46.79,46.79,0,0,1,2.15,17l10.26,2.8a5.56,5.56,0,0,1,3.89,6.83l-2.3,8.4a5.56,5.56,0,0,1-6.83,3.89l-10.26-2.8a46.52,46.52,0,0,1-10.49,13.52l5.27,9.24a5.54,5.54,0,0,1-2.07,7.58l-7.57,4.32a5.56,5.56,0,0,1-7.58-2.08L132.87,160a46.73,46.73,0,0,1-17,2.15l-2.81,10.26a5.52,5.52,0,0,1-2.6,3.36A5.6,5.6,0,0,1,107.73,176.52ZM83.91,142.61l.8.95a43.83,43.83,0,0,0,14.48,11.23l1.13.55L96.85,168a2.53,2.53,0,0,0,.25,1.94,2.56,2.56,0,0,0,1.55,1.2l8.4,2.3a2.57,2.57,0,0,0,3.14-1.79L113.65,159l1.24.1a43.84,43.84,0,0,0,18.18-2.29l1.18-.41,6.5,11.39a2.55,2.55,0,0,0,3.49.95l7.56-4.31a2.52,2.52,0,0,0,1.2-1.55,2.57,2.57,0,0,0-.24-1.94l-6.5-11.39,1-.81a43.76,43.76,0,0,0,11.23-14.48l.54-1.12,12.66,3.46a2.57,2.57,0,0,0,3.14-1.79l2.3-8.4a2.56,2.56,0,0,0-1.8-3.14l-12.65-3.46.11-1.25a43.87,43.87,0,0,0-2.3-18.18L160,99.19l11.39-6.49a2.57,2.57,0,0,0,1-3.49l-4.32-7.57a2.54,2.54,0,0,0-3.48-1l-11.39,6.5-.81-1A43.89,43.89,0,0,0,137.9,75l-1.12-.54,3.46-12.65a2.57,2.57,0,0,0-1.79-3.14l-8.4-2.3a2.57,2.57,0,0,0-3.15,1.79l-3.46,12.65-1.24-.1A43.84,43.84,0,0,0,104,73l-1.18.41L96.35,62a2.56,2.56,0,0,0-1.55-1.2,2.53,2.53,0,0,0-1.94.25l-7.57,4.31a2.56,2.56,0,0,0-1.2,1.55,2.53,2.53,0,0,0,.25,1.94l6.49,11.39-1,.81A43.89,43.89,0,0,0,78.65,95.55l-.54,1.12L65.46,93.21A2.55,2.55,0,0,0,62.32,95L60,103.4a2.53,2.53,0,0,0,.24,1.94,2.56,2.56,0,0,0,1.55,1.2L74.46,110l-.1,1.25a43.86,43.86,0,0,0,2.29,18.18l.41,1.17-11.39,6.5a2.57,2.57,0,0,0-1,3.49L69,148.15a2.57,2.57,0,0,0,3.49,1ZM118.59,140a25.3,25.3,0,0,1-6.66-.89h0a25,25,0,1,1,6.66.89Zm-.08-47.12a22.1,22.1,0,1,0,5.86.79A22.23,22.23,0,0,0,118.51,92.84Z"/></g><g class="cls-11"><path class="cls-10" d="M350.9,149.46l-56.57,1c-1.64,0-3-1-3-2.31l-.68-37.56a2.72,2.72,0,0,1,2.92-2.42l56.58-1c1.63,0,3,1,3,2.3l.69,37.57C353.85,148.35,352.54,149.43,350.9,149.46Zm-57.33-40.55c-1.24,0-2.25.78-2.23,1.69l.68,37.57c0,.91,1.05,1.64,2.3,1.61l56.57-1c1.25,0,2.25-.79,2.23-1.7l-.68-37.57c0-.91-1-1.63-2.29-1.61Z"/><rect class="cls-10" x="291.09" y="115.35" width="61.44" height="0.7" transform="translate(-2.05 5.86) rotate(-1.04)"/><path class="cls-10" d="M295.51,114a1.32,1.32,0,1,1,1.3-1.34A1.31,1.31,0,0,1,295.51,114Zm0-1.94a.62.62,0,1,0,.63.61A.62.62,0,0,0,295.48,112.07Z"/><path class="cls-10" d="M299.16,114a1.33,1.33,0,1,1,1.3-1.35A1.33,1.33,0,0,1,299.16,114Zm0-2a.63.63,0,0,0-.61.63.63.63,0,0,0,1.25,0A.63.63,0,0,0,299.12,112Z"/><path class="cls-10" d="M302.74,113.88a1.32,1.32,0,1,1-.05-2.64,1.32,1.32,0,0,1,.05,2.64Zm0-1.94a.62.62,0,0,0-.61.63.62.62,0,1,0,1.24,0A.61.61,0,0,0,302.7,111.94Z"/></g><g class="cls-11"><path class="cls-10" d="M161,374l-56.58,1a2.72,2.72,0,0,1-3-2.3l-.68-37.57a2.72,2.72,0,0,1,2.92-2.41l56.58-1a2.73,2.73,0,0,1,3,2.31l.68,37.57A2.72,2.72,0,0,1,161,374Zm-57.33-40.56c-1.25,0-2.25.79-2.24,1.7l.69,37.57c0,.91,1,1.64,2.29,1.61l56.57-1c1.25,0,2.25-.79,2.24-1.7L162.56,334c0-.91-1.05-1.64-2.3-1.61Z"/><rect class="cls-10" x="101.2" y="339.89" width="61.44" height="0.7" transform="translate(-6.16 2.45) rotate(-1.04)"/><path class="cls-10" d="M105.63,338.55a1.32,1.32,0,1,1,1.3-1.35A1.33,1.33,0,0,1,105.63,338.55Zm0-1.94a.62.62,0,0,0-.61.63.63.63,0,0,0,.63.61.62.62,0,1,0,0-1.24Z"/><path class="cls-10" d="M109.27,338.48a1.3,1.3,0,0,1-1.34-1.29,1.32,1.32,0,1,1,1.34,1.29Zm0-1.94a.62.62,0,0,0-.61.63.61.61,0,0,0,.63.61.62.62,0,0,0,.61-.63A.63.63,0,0,0,109.24,336.54Z"/><path class="cls-10" d="M112.85,338.42a1.33,1.33,0,1,1,1.3-1.35A1.33,1.33,0,0,1,112.85,338.42Zm0-1.94a.62.62,0,0,0-.61.63.63.63,0,0,0,1.25,0A.62.62,0,0,0,112.81,336.48Z"/></g><g class="cls-12"><path class="cls-10" d="M396.1,267.71,390.25,263a28.89,28.89,0,0,0,3.35-11.5l7.45-.82a2.56,2.56,0,0,0,2.27-2.83l-.6-5.47a2.56,2.56,0,0,0-2.83-2.27l-7.46.82a28.69,28.69,0,0,0-5.77-10.5l4.7-5.85A2.58,2.58,0,0,0,391,221l-4.3-3.44a2.56,2.56,0,0,0-3.6.4l-4.69,5.85a28.87,28.87,0,0,0-11.5-3.34l-.82-7.46a2.58,2.58,0,0,0-2.83-2.27l-5.48.61a2.56,2.56,0,0,0-2.26,2.83l.82,7.45a28.84,28.84,0,0,0-10.5,5.77L340,222.7a2.57,2.57,0,0,0-3.61.39l-3.44,4.3a2.55,2.55,0,0,0,.4,3.6l5.85,4.7a28.79,28.79,0,0,0-3.35,11.5l-7.45.82a2.56,2.56,0,0,0-2.27,2.83l.6,5.47a2.58,2.58,0,0,0,2.83,2.27l7.46-.82a28.65,28.65,0,0,0,5.77,10.49l-4.7,5.86a2.57,2.57,0,0,0,.4,3.6l4.3,3.44a2.56,2.56,0,0,0,3.6-.39L351,274.9a28.72,28.72,0,0,0,11.5,3.35l.82,7.45a2.57,2.57,0,0,0,2.83,2.27l5.48-.6a2.57,2.57,0,0,0,2.27-2.83l-.83-7.45a29,29,0,0,0,10.5-5.77l5.85,4.69a2.57,2.57,0,0,0,3.61-.4l3.44-4.29A2.56,2.56,0,0,0,396.1,267.71ZM355.39,261a14.89,14.89,0,1,1,20.93-2.31A14.89,14.89,0,0,1,355.39,261Z"/><path class="cls-10" d="M365.9,288.49a3.08,3.08,0,0,1-3-2.73l-.78-7.05a29,29,0,0,1-10.91-3.17l-4.44,5.53a3.07,3.07,0,0,1-4.31.48l-4.29-3.45a3.07,3.07,0,0,1-.48-4.31l4.44-5.53a29.27,29.27,0,0,1-5.48-10l-7,.77a3.06,3.06,0,0,1-3.38-2.71l-.61-5.47a3.07,3.07,0,0,1,2.71-3.38l7-.78a29,29,0,0,1,3.18-10.91L333,231.38a3,3,0,0,1-.47-4.3l3.44-4.3a3.06,3.06,0,0,1,4.31-.47l5.53,4.43a29.36,29.36,0,0,1,10-5.48l-.77-7a3.06,3.06,0,0,1,2.71-3.38l5.47-.6a3.06,3.06,0,0,1,3.38,2.71l.78,7a29.16,29.16,0,0,1,10.91,3.18l4.44-5.53a3.08,3.08,0,0,1,4.31-.48l4.29,3.44a3.07,3.07,0,0,1,.48,4.31l-4.44,5.53a29.14,29.14,0,0,1,5.48,10l7-.78a3,3,0,0,1,2.26.66,3.07,3.07,0,0,1,1.13,2.05l.6,5.47a3,3,0,0,1-.66,2.26,3.07,3.07,0,0,1-2.05,1.13l-7.05.77a29.07,29.07,0,0,1-3.17,10.92l5.53,4.43a3.06,3.06,0,0,1,.47,4.31l-3.44,4.29a3.08,3.08,0,0,1-4.31.48L383.61,272a29,29,0,0,1-10,5.48l.77,7.05a3.06,3.06,0,0,1-2.71,3.38l-5.47.6Zm-15-14.22.37.19a28,28,0,0,0,11.3,3.29l.41,0,.87,7.87a2.08,2.08,0,0,0,2.28,1.83l5.47-.61a2.06,2.06,0,0,0,1.83-2.28l-.87-7.86.4-.12a28.32,28.32,0,0,0,10.31-5.67l.32-.27,6.18,4.95a2.07,2.07,0,0,0,2.9-.32l3.44-4.3a2,2,0,0,0,.44-1.51,2.07,2.07,0,0,0-.76-1.39h0l-6.18-5,.2-.37a28.21,28.21,0,0,0,3.29-11.3l0-.41,7.87-.87a2.06,2.06,0,0,0,1.82-2.28l-.6-5.47a2,2,0,0,0-.76-1.38,2,2,0,0,0-1.52-.44l-7.87.86-.12-.4a28.15,28.15,0,0,0-5.66-10.31l-.28-.32,5-6.17a2.08,2.08,0,0,0-.32-2.91l-4.3-3.44a2.06,2.06,0,0,0-2.9.32l-4.95,6.18-.37-.2a28.37,28.37,0,0,0-11.3-3.29l-.41,0-.87-7.86a2.07,2.07,0,0,0-2.28-1.83l-5.47.6a2.06,2.06,0,0,0-1.83,2.28l.87,7.87-.4.12a28,28,0,0,0-10.31,5.67l-.32.27-6.17-4.95a2,2,0,0,0-1.52-.44,2.07,2.07,0,0,0-1.39.76l-3.44,4.29a2.06,2.06,0,0,0,.32,2.9l6.18,5-.2.36a28.21,28.21,0,0,0-3.29,11.3l0,.42-7.87.86a2.09,2.09,0,0,0-1.38.76,2,2,0,0,0-.44,1.52l.6,5.47a2.06,2.06,0,0,0,2.28,1.83l7.87-.87.12.4a28.28,28.28,0,0,0,5.66,10.32l.28.31-4.95,6.18a2.05,2.05,0,0,0,.31,2.9l4.3,3.44a2,2,0,0,0,2.9-.32Zm13.79-9.54a15.38,15.38,0,1,1,12-5.75A15.31,15.31,0,0,1,364.69,264.73Zm0-29.77a14.4,14.4,0,1,0,9,3.17A14.3,14.3,0,0,0,364.73,235Z"/></g><g class="cls-13"><path class="cls-10" d="M433.42,312.16H376.8a2,2,0,0,1-1.78-2.11V289.21a2,2,0,0,1,1.78-2.11h56.62a2,2,0,0,1,1.77,2.11v20.84A2,2,0,0,1,433.42,312.16ZM376.8,288.1c-.42,0-.78.51-.78,1.11v20.84c0,.6.36,1.11.78,1.11h56.62c.42,0,.77-.51.77-1.11V289.21c0-.6-.35-1.11-.77-1.11Z"/><rect class="cls-10" x="386.68" y="295.16" width="38.33" height="1"/><path class="cls-10" d="M425,296.66H386.68a1,1,0,0,1,0-2H425a1,1,0,0,1,0,2Zm0-1v0Z"/><rect class="cls-10" x="386.68" y="299.7" width="17.13" height="1"/><path class="cls-10" d="M403.81,301.2H386.68a1,1,0,0,1,0-2h17.13a1,1,0,0,1,0,2Zm0-1v0Z"/><rect class="cls-10" x="407.88" y="299.7" width="17.13" height="1"/><path class="cls-10" d="M425,301.2H407.88a1,1,0,0,1,0-2H425a1,1,0,0,1,0,2Zm0-1v0Z"/><rect class="cls-10" x="386.68" y="304.46" width="38.33" height="1"/><path class="cls-10" d="M425,306H386.68a1,1,0,0,1,0-2H425a1,1,0,0,1,0,2Zm0-1v0Z"/></g><g class="cls-12"><path class="cls-10" d="M275.76,404.78a3.49,3.49,0,0,1-3.45-3.1l-.7-6.39a28.66,28.66,0,0,1-9.95-2.9l-4,5a3.48,3.48,0,0,1-4.89.54l-4.16-3.33a3.47,3.47,0,0,1-.53-4.89l4-5a28.74,28.74,0,0,1-5-9.07l-6.39.7a3.49,3.49,0,0,1-3.84-3.08l-.59-5.29a3.5,3.5,0,0,1,3.08-3.84l6.4-.7a28.43,28.43,0,0,1,2.89-9.95l-5-4a3.48,3.48,0,0,1-.54-4.89l3.33-4.15a3.48,3.48,0,0,1,4.89-.54l5,4a28.68,28.68,0,0,1,9.08-5l-.71-6.39a3.49,3.49,0,0,1,3.08-3.84l5.29-.58a3.47,3.47,0,0,1,3.84,3.08l.7,6.39a28.86,28.86,0,0,1,9.95,2.89l4-5a3.49,3.49,0,0,1,4.89-.54l4.16,3.33a3.46,3.46,0,0,1,1.28,2.34,3.41,3.41,0,0,1-.75,2.55l-4,5a28.79,28.79,0,0,1,5,9.08l6.39-.7a3.49,3.49,0,0,1,3.84,3.07l.59,5.29a3.5,3.5,0,0,1-3.08,3.84l-6.4.71a28.38,28.38,0,0,1-2.89,9.94l5,4h0a3.48,3.48,0,0,1,.54,4.89l-3.33,4.15a3.46,3.46,0,0,1-2.33,1.28,3.43,3.43,0,0,1-2.56-.74l-5-4a28.66,28.66,0,0,1-9.08,5l.71,6.4a3.49,3.49,0,0,1-3.08,3.84l-5.29.58Zm-14.63-14.93.74.4a26.67,26.67,0,0,0,10.71,3.12l.83.06.89,8a1.43,1.43,0,0,0,.54,1,1.49,1.49,0,0,0,1.09.32l5.29-.58a1.5,1.5,0,0,0,1.31-1.64l-.89-8,.8-.24a26.51,26.51,0,0,0,9.78-5.38l.63-.54,6.31,5.06a1.47,1.47,0,0,0,1.09.31,1.45,1.45,0,0,0,1-.54l3.33-4.15a1.48,1.48,0,0,0,.31-1.09,1.43,1.43,0,0,0-.54-1h0L298,379.9l.4-.73a26.91,26.91,0,0,0,3.11-10.72l.07-.83,8-.88A1.49,1.49,0,0,0,311,365.1l-.59-5.29a1.49,1.49,0,0,0-1.63-1.31l-8,.89-.24-.8a26.88,26.88,0,0,0-5.38-9.78l-.54-.63,5-6.31a1.45,1.45,0,0,0,.32-1.08,1.49,1.49,0,0,0-.54-1l-4.16-3.33a1.5,1.5,0,0,0-2.08.23L288.08,343l-.74-.39a26.67,26.67,0,0,0-10.71-3.12l-.83-.06-.89-8a1.45,1.45,0,0,0-.54-1,1.52,1.52,0,0,0-1.09-.31l-5.29.58a1.47,1.47,0,0,0-1,.54,1.49,1.49,0,0,0-.32,1.09l.89,8-.8.24A26.71,26.71,0,0,0,257,346l-.63.54-6.31-5.05a1.47,1.47,0,0,0-1.09-.32,1.5,1.5,0,0,0-1,.55l-3.33,4.15a1.48,1.48,0,0,0-.31,1.09,1.45,1.45,0,0,0,.54,1l6.31,5.06-.4.73a26.86,26.86,0,0,0-3.11,10.72l-.06.83-8,.88a1.48,1.48,0,0,0-1.31,1.63l.59,5.29a1.48,1.48,0,0,0,1.63,1.31l8-.88.24.79a26.84,26.84,0,0,0,5.38,9.79l.54.63-5,6.3a1.49,1.49,0,0,0-.32,1.09,1.47,1.47,0,0,0,.54,1l4.16,3.33a1.48,1.48,0,0,0,2.08-.23Zm13.46-8a15.39,15.39,0,1,1,12-5.76A15.32,15.32,0,0,1,274.59,381.82Zm0-28.79a12.54,12.54,0,0,0-1.49.09,13.39,13.39,0,0,0-6.91,23.76h0A13.39,13.39,0,1,0,283,356,13.26,13.26,0,0,0,274.63,353Z"/></g><g class="cls-14"><rect class="cls-15" x="48.7" y="161.25" width="98.35" height="159.14" rx="3.43" transform="translate(-2.92 1.21) rotate(-0.7)"/><path class="cls-16" d="M146.46,164l.11,9-98.35,1.2-.11-9.22a3.28,3.28,0,0,1,3.25-3.32l91.6-1.12A3.46,3.46,0,0,1,146.46,164Z"/><path class="cls-10" d="M54.89,169.77a2,2,0,1,1,2-2A2,2,0,0,1,54.89,169.77Zm0-3.24a1.2,1.2,0,0,0-1.2,1.22A1.22,1.22,0,0,0,54.88,169a1.23,1.23,0,0,0,1.21-1.23A1.22,1.22,0,0,0,54.86,166.53Z"/><path class="cls-10" d="M61.65,169.71a2,2,0,1,1,2-2A2,2,0,0,1,61.65,169.71Zm0-3.24a1.23,1.23,0,0,0-1.21,1.23,1.22,1.22,0,0,0,2.43,0A1.22,1.22,0,0,0,61.63,166.47Z"/><path class="cls-10" d="M68.23,169.66a2,2,0,1,1,2-2A2,2,0,0,1,68.23,169.66Zm0-3.23a1.21,1.21,0,1,0,0,2.42,1.21,1.21,0,1,0,0-2.42Z"/><path class="cls-10" d="M102.1,188.32l-45.45.34a.81.81,0,0,1-.82-.8.82.82,0,0,1,.81-.82l45.45-.34a.81.81,0,0,1,.81.8A.8.8,0,0,1,102.1,188.32Z"/><path class="cls-16" d="M117.25,188.2l-9.43.08a.82.82,0,0,1-.82-.81.8.8,0,0,1,.8-.81l9.44-.07a.81.81,0,0,1,0,1.61Z"/><path class="cls-10" d="M102.38,226.05l-45.44.34a.8.8,0,0,1-.82-.8.82.82,0,0,1,.8-.82l45.45-.34a.81.81,0,1,1,0,1.62Z"/><path class="cls-17" d="M117.53,225.94l-9.43.07a.82.82,0,0,1-.82-.81.81.81,0,0,1,.81-.81l9.43-.07a.81.81,0,0,1,.82.8A.82.82,0,0,1,117.53,225.94Z"/><path class="cls-17" d="M102.23,206.33l-45.44.34a.81.81,0,0,1-.82-.8.82.82,0,0,1,.8-.82l45.45-.34a.8.8,0,0,1,.82.8A.82.82,0,0,1,102.23,206.33Z"/><path class="cls-10" d="M117.38,206.21l-9.43.07a.79.79,0,0,1-.81-.8.81.81,0,0,1,.8-.82l9.43-.07a.82.82,0,0,1,.82.81A.81.81,0,0,1,117.38,206.21Z"/><path class="cls-16" d="M132.91,206.1l-9.43.07a.81.81,0,0,1-.81-.81.8.8,0,0,1,.8-.81l9.43-.07a.8.8,0,0,1,.82.8A.82.82,0,0,1,132.91,206.1Z"/><path class="cls-16" d="M87,197.3l-30.3.22a.81.81,0,1,1,0-1.61L87,195.68a.8.8,0,0,1,.82.8A.82.82,0,0,1,87,197.3Z"/><path class="cls-18" d="M105.88,197.15l-13.29.1a.81.81,0,0,1-.82-.8.82.82,0,0,1,.81-.82l13.29-.1a.82.82,0,0,1,.82.81A.81.81,0,0,1,105.88,197.15Z"/><path class="cls-16" d="M106,216.13l-30.3.23a.81.81,0,0,1,0-1.62l30.3-.23a.81.81,0,0,1,0,1.62Z"/><path class="cls-18" d="M70.15,216.4l-13.29.1a.81.81,0,0,1,0-1.62l13.29-.1a.81.81,0,1,1,0,1.62Z"/><path class="cls-18" d="M102.48,238.77,57,239.11a.79.79,0,0,1-.81-.8.81.81,0,0,1,.8-.82l45.45-.34a.81.81,0,0,1,0,1.62Z"/><path class="cls-16" d="M117.63,238.66l-9.43.07a.81.81,0,0,1,0-1.62l9.44-.07a.8.8,0,0,1,.81.8A.81.81,0,0,1,117.63,238.66Z"/><path class="cls-10" d="M102.77,276.5l-45.45.34a.81.81,0,1,1,0-1.61l45.44-.35a.81.81,0,1,1,0,1.62Z"/><path class="cls-17" d="M117.92,276.39l-9.44.07a.81.81,0,0,1-.81-.81.8.8,0,0,1,.8-.81l9.43-.07a.8.8,0,0,1,.82.8A.82.82,0,0,1,117.92,276.39Z"/><path class="cls-17" d="M102.62,256.78l-45.45.34a.81.81,0,0,1-.82-.8.82.82,0,0,1,.81-.82l45.44-.34a.81.81,0,1,1,0,1.62Z"/><path class="cls-10" d="M117.77,256.66l-9.44.08a.81.81,0,0,1-.81-.81.79.79,0,0,1,.8-.81l9.43-.08a.82.82,0,0,1,.82.81A.8.8,0,0,1,117.77,256.66Z"/><path class="cls-16" d="M133.3,256.55l-9.44.07a.81.81,0,0,1-.81-.81.8.8,0,0,1,.8-.81l9.43-.07a.8.8,0,0,1,.82.8A.82.82,0,0,1,133.3,256.55Z"/><path class="cls-16" d="M87.4,247.75,57.1,248a.81.81,0,1,1,0-1.61l30.3-.23a.8.8,0,0,1,.81.8A.81.81,0,0,1,87.4,247.75Z"/><path class="cls-18" d="M106.26,247.6,93,247.7a.79.79,0,0,1-.81-.8.81.81,0,0,1,.8-.82l13.29-.1a.82.82,0,0,1,.82.81A.81.81,0,0,1,106.26,247.6Z"/><path class="cls-16" d="M106.41,266.58l-30.3.23a.82.82,0,0,1-.82-.81.81.81,0,0,1,.81-.81l30.29-.23a.81.81,0,1,1,0,1.62Z"/><path class="cls-18" d="M70.53,266.85l-13.29.1a.81.81,0,0,1-.81-.8.8.8,0,0,1,.8-.82l13.29-.1a.81.81,0,1,1,0,1.62Z"/><path class="cls-18" d="M102.85,288.17l-45.44.34a.8.8,0,0,1-.82-.8.82.82,0,0,1,.8-.82l45.45-.34a.81.81,0,0,1,.82.8A.82.82,0,0,1,102.85,288.17Z"/><path class="cls-16" d="M118,288.05l-9.43.07a.81.81,0,1,1,0-1.61l9.43-.08a.82.82,0,0,1,.82.81A.81.81,0,0,1,118,288.05Z"/><path class="cls-10" d="M118.18,311.88l-9.43.07a.81.81,0,0,1,0-1.62l9.43-.07a.81.81,0,0,1,.82.8A.82.82,0,0,1,118.18,311.88Z"/><path class="cls-16" d="M133.71,311.76l-9.43.07a.81.81,0,0,1,0-1.62l9.43-.07a.81.81,0,1,1,0,1.62Z"/><path class="cls-16" d="M87.77,297.14l-30.3.23a.8.8,0,0,1-.81-.8.81.81,0,0,1,.8-.82l30.3-.23a.82.82,0,0,1,.82.81A.81.81,0,0,1,87.77,297.14Z"/><path class="cls-18" d="M106.64,297l-13.29.1a.8.8,0,0,1-.82-.8.82.82,0,0,1,.8-.82l13.3-.1a.81.81,0,0,1,0,1.62Z"/></g><polygon class="cls-19" points="132.19 107.75 133.21 111.25 133.21 106.58 132.19 107.75"/><polygon class="cls-19" points="133.31 337.05 133.31 332.38 132.28 335.88 133.31 337.05"/><path class="cls-20" d="M133.2,86.45v24.8l0,55.89,0,109.35,0,55.89v18.27A14.37,14.37,0,0,0,147.65,365h10.21l112.43,0a14.35,14.35,0,0,0,14.32-14.34l-.12-264.2a14.35,14.35,0,0,0-14.33-14.32l-122.64.06A14.33,14.33,0,0,0,133.2,86.45Z"/><path class="cls-16" d="M134.25,91.45v24l0,54.07,0,105.8,0,54.06v17.68a13.88,13.88,0,0,0,9.18,13,14.3,14.3,0,0,0,5,.89h10.07l110.87-.05a14.24,14.24,0,0,0,8-2.43A13.78,13.78,0,0,0,283.56,347l-.11-255.6a13.76,13.76,0,0,0-5.05-10.61,14.23,14.23,0,0,0-9.09-3.24l-120.94,0A14,14,0,0,0,134.25,91.45Z"/><path class="cls-10" d="M276.6,112.32l.09,212.33a3.44,3.44,0,0,1-3.43,3.44l-128.61.05a3.43,3.43,0,0,1-3.44-3.43l-.09-212.33a3.44,3.44,0,0,1,3.43-3.44l128.61,0A3.44,3.44,0,0,1,276.6,112.32Z"/><path class="cls-17" d="M276.6,112.23V126l-135.47.06V112.12a3.3,3.3,0,0,1,3.29-3.29l128.73,0A3.46,3.46,0,0,1,276.6,112.23Z"/><path class="cls-10" d="M259.87,115.47a.51.51,0,0,1-.5-.5.5.5,0,0,1,.5-.5H270a.5.5,0,0,1,.5.5.5.5,0,0,1-.5.5Z"/><path class="cls-10" d="M259.87,118.06a.5.5,0,0,1-.5-.5.51.51,0,0,1,.5-.5H270a.5.5,0,0,1,.5.5.5.5,0,0,1-.5.5Z"/><path class="cls-10" d="M259.87,120.66a.51.51,0,0,1-.5-.5.5.5,0,0,1,.5-.5H270a.51.51,0,0,1,.5.5.5.5,0,0,1-.5.5Z"/><path class="cls-10" d="M153.23,122.31a.49.49,0,0,1-.35-.14l-3.69-3.69a.82.82,0,0,1,0-1.16l3.54-3.55a.51.51,0,0,1,.71,0,.5.5,0,0,1,0,.71L150,117.9l3.57,3.56a.51.51,0,0,1,0,.71A.5.5,0,0,1,153.23,122.31Z"/><path class="cls-10" d="M209,96.18a3.67,3.67,0,1,1,0-7.33h0a3.67,3.67,0,0,1,0,7.33Zm0-5.78h0a2.12,2.12,0,1,0,0,4.23h0a2.12,2.12,0,0,0,0-4.23Z"/><path class="cls-10" d="M205.49,354.5a2.37,2.37,0,0,1-2.36-2.36v-6.95a2.36,2.36,0,0,1,2.35-2.35h7a2.35,2.35,0,0,1,2.35,2.35v6.95a2.35,2.35,0,0,1-2.35,2.35Zm6.95-10.66h-7a1.36,1.36,0,0,0-1.35,1.35v6.95a1.37,1.37,0,0,0,1.36,1.36h6.95a1.35,1.35,0,0,0,1.35-1.35v-6.95A1.35,1.35,0,0,0,212.44,343.84Z"/><path class="cls-10" d="M163.62,345a.5.5,0,0,1,0-1h6.69a.5.5,0,0,1,.5.5.5.5,0,0,1-.5.5Z"/><path class="cls-10" d="M163.62,348.59a.5.5,0,0,1-.5-.5.5.5,0,0,1,.5-.5h6.69a.5.5,0,0,1,.5.5.5.5,0,0,1-.5.5Z"/><path class="cls-10" d="M163.62,352.24a.5.5,0,0,1-.5-.5.51.51,0,0,1,.5-.5h6.69a.5.5,0,0,1,0,1Z"/><path class="cls-10" d="M256,354.47a.54.54,0,0,1-.35-.14l-5.26-5.26,5.12-5.13a.5.5,0,1,1,.71.71l-4.42,4.42,4.56,4.55a.51.51,0,0,1,0,.71A.54.54,0,0,1,256,354.47Z"/><rect class="cls-21" x="141.34" y="126.24" width="135.27" height="44.3"/><rect class="cls-22" x="152.41" y="135.2" width="51.39" height="10.98" rx="1.41"/><rect class="cls-22" x="152.42" y="152.32" width="78.07" height="5.49" rx="1.41"/><path class="cls-22" d="M260,156.89a10.39,10.39,0,1,1,0-20.77h0a10.4,10.4,0,0,1,10.39,10.38h0A10.38,10.38,0,0,1,260,156.89Zm0-18.77h0a8.39,8.39,0,1,0,0,16.77h0a8.38,8.38,0,0,0,8.38-8.39h0a8.38,8.38,0,0,0-8.39-8.38Z"/><rect class="cls-20" x="153.32" y="186.62" width="31.49" height="31.49" rx="4.56"/><g class="cls-23"><path class="cls-17" d="M175.86,202.51a6.8,6.8,0,1,1-6.8-6.79A6.79,6.79,0,0,1,175.86,202.51Z"/></g><g class="cls-24"><rect class="cls-16" x="190.29" y="191.51" width="19.98" height="5.65" rx="1.14"/><path class="cls-16" d="M190.29,205.84a1,1,0,0,1-1-1,1,1,0,0,1,1-1h34.1a1,1,0,0,1,0,2Z"/><path class="cls-16" d="M190.29,213a1,1,0,0,1,0-2l55.61,0h0a1,1,0,0,1,0,2l-55.6,0Z"/><path class="cls-16" d="M232,205.83a1,1,0,0,1-1-1,1,1,0,0,1,1-1l34.1,0h0a1,1,0,0,1,0,2l-34.1,0Z"/></g><rect class="cls-17" x="153.36" y="278.22" width="31.49" height="31.49" rx="4.56"/><g class="cls-25"><path class="cls-16" d="M175.9,294.12a6.8,6.8,0,1,1-6.8-6.79A6.8,6.8,0,0,1,175.9,294.12Z"/></g><g class="cls-24"><rect class="cls-16" x="190.33" y="283.12" width="19.98" height="5.65" rx="1.14"/><path class="cls-16" d="M190.33,297.45a1,1,0,1,1,0-2h34.11a1,1,0,0,1,0,2Z"/><path class="cls-16" d="M190.33,304.59a1,1,0,1,1,0-2l55.61,0h0a1,1,0,0,1,1,1,1,1,0,0,1-1,1l-55.6,0Z"/><path class="cls-16" d="M232,297.43a1,1,0,0,1,0-2h34.1a1,1,0,0,1,0,2Z"/></g><rect class="cls-18" x="153.34" y="232.32" width="31.49" height="31.49" rx="4.56"/><circle class="cls-22" cx="169.08" cy="248.21" r="6.8"/><g class="cls-24"><rect class="cls-16" x="190.31" y="237.21" width="19.98" height="5.65" rx="1.14"/><path class="cls-16" d="M190.31,251.54a1,1,0,0,1,0-2h15.78a1,1,0,0,1,0,2Z"/><path class="cls-16" d="M190.31,258.68a1,1,0,0,1,0-2l32.37,0h0a1,1,0,0,1,0,2l-32.36,0Z"/><path class="cls-16" d="M212.69,251.53a1,1,0,0,1,0-2h31.5a1,1,0,0,1,0,2Z"/><path class="cls-16" d="M250.05,251.52a1,1,0,0,1,0-2h15.77a1,1,0,0,1,0,2Z"/></g><rect class="cls-26" x="309.17" y="261.27" width="70.83" height="114.6" rx="3.43" transform="matrix(1, -0.01, 0.01, 1, -3.84, 4.21)"/><rect class="cls-27" x="309.17" y="261.27" width="70.83" height="114.6" rx="3.43" transform="matrix(1, -0.01, 0.01, 1, -3.84, 4.21)"/><path class="cls-18" d="M379.58,264.24l.06,5.55-70.82.86-.07-5.72a3.28,3.28,0,0,1,3.25-3.32l64.08-.78A3.45,3.45,0,0,1,379.58,264.24Z"/><path class="cls-10" d="M313.62,267.41a1.46,1.46,0,1,1,0-2.92,1.46,1.46,0,0,1,0,2.92Zm0-2.34a.89.89,0,0,0-.87.89.88.88,0,1,0,.87-.89Z"/><path class="cls-10" d="M318.49,267.37a1.46,1.46,0,0,1,0-2.92,1.46,1.46,0,0,1,0,2.92Zm0-2.33a.88.88,0,1,0,.88.87A.87.87,0,0,0,318.47,265Z"/><path class="cls-10" d="M323.22,267.33a1.46,1.46,0,1,1,1.45-1.46A1.46,1.46,0,0,1,323.22,267.33Zm0-2.33a.88.88,0,0,0,0,1.75.88.88,0,0,0,0-1.75Z"/><path class="cls-10" d="M347.62,280.77l-32.73.25a.59.59,0,1,1,0-1.17l32.73-.25a.6.6,0,0,1,.59.58A.59.59,0,0,1,347.62,280.77Z"/><path class="cls-10" d="M358.53,280.69l-6.8.05a.58.58,0,0,1-.58-.58.57.57,0,0,1,.57-.59l6.8-.05a.59.59,0,0,1,0,1.17Z"/><path class="cls-10" d="M347.82,307.94l-32.73.25a.58.58,0,0,1-.58-.58.57.57,0,0,1,.57-.59l32.73-.25a.59.59,0,0,1,0,1.17Z"/><path class="cls-10" d="M358.73,307.86l-6.79.05a.59.59,0,0,1-.59-.58.6.6,0,0,1,.58-.59l6.79-.05a.58.58,0,0,1,.59.58A.59.59,0,0,1,358.73,307.86Z"/><path class="cls-10" d="M347.72,293.74,315,294a.57.57,0,0,1-.59-.57.58.58,0,0,1,.58-.59l32.73-.25a.59.59,0,0,1,0,1.17Z"/><path class="cls-10" d="M358.62,293.65l-6.79.06a.6.6,0,0,1-.59-.58.58.58,0,0,1,.58-.59l6.8-.05a.57.57,0,0,1,.58.58A.57.57,0,0,1,358.62,293.65Z"/><path class="cls-10" d="M369.81,293.57l-6.79.05a.58.58,0,0,1-.59-.58.6.6,0,0,1,.58-.59l6.79-.05a.59.59,0,0,1,0,1.17Z"/><path class="cls-10" d="M336.76,287.23l-21.82.17a.59.59,0,1,1,0-1.17l21.82-.16a.58.58,0,0,1,0,1.16Z"/><path class="cls-10" d="M350.34,287.13l-9.57.07a.58.58,0,1,1,0-1.16l9.57-.08a.59.59,0,0,1,0,1.17Z"/><path class="cls-10" d="M350.44,300.8l-21.82.16a.59.59,0,0,1,0-1.17l21.82-.16a.59.59,0,0,1,0,1.17Z"/><path class="cls-10" d="M324.61,301l-9.57.07a.58.58,0,1,1,0-1.16l9.57-.08a.59.59,0,0,1,.59.58A.58.58,0,0,1,324.61,301Z"/><path class="cls-10" d="M347.89,317.1l-32.73.25a.6.6,0,0,1-.59-.58.59.59,0,0,1,.58-.59l32.73-.25a.59.59,0,0,1,0,1.17Z"/><path class="cls-10" d="M358.8,317l-6.79.05a.59.59,0,0,1-.59-.58.6.6,0,0,1,.58-.59l6.79,0a.58.58,0,0,1,.59.58A.59.59,0,0,1,358.8,317Z"/><path class="cls-10" d="M348.1,344.27l-32.73.25a.59.59,0,0,1-.59-.58.6.6,0,0,1,.58-.59l32.73-.24a.58.58,0,1,1,0,1.16Z"/><path class="cls-10" d="M359,344.19l-6.8.05a.59.59,0,0,1,0-1.17L359,343a.6.6,0,0,1,.59.58A.59.59,0,0,1,359,344.19Z"/><path class="cls-10" d="M348,330.07l-32.73.25a.6.6,0,0,1-.59-.58.59.59,0,0,1,.58-.59L348,328.9a.59.59,0,0,1,0,1.17Z"/><path class="cls-10" d="M358.9,330l-6.79.05a.58.58,0,0,1-.59-.58.59.59,0,0,1,.58-.59l6.79-.05a.59.59,0,0,1,.59.58A.6.6,0,0,1,358.9,330Z"/><path class="cls-10" d="M370.08,329.9l-6.79.05a.58.58,0,1,1,0-1.16l6.8-.05a.58.58,0,1,1,0,1.16Z"/><path class="cls-10" d="M337,323.56l-21.82.17a.59.59,0,1,1,0-1.17L337,322.4a.58.58,0,1,1,0,1.16Z"/><path class="cls-10" d="M350.62,323.46l-9.58.07a.58.58,0,1,1,0-1.16l9.57-.08a.6.6,0,0,1,.59.58A.58.58,0,0,1,350.62,323.46Z"/><path class="cls-10" d="M350.72,337.13l-21.82.16a.58.58,0,1,1,0-1.16l21.82-.17a.59.59,0,0,1,.59.58A.6.6,0,0,1,350.72,337.13Z"/><path class="cls-10" d="M324.89,337.32l-9.58.07a.58.58,0,1,1,0-1.16l9.57-.07a.58.58,0,0,1,0,1.16Z"/><path class="cls-10" d="M348.16,352.67l-32.73.25a.59.59,0,0,1-.59-.58.58.58,0,0,1,.58-.58l32.73-.25a.58.58,0,1,1,0,1.16Z"/><path class="cls-10" d="M359.07,352.59l-6.79.05a.58.58,0,1,1,0-1.16l6.79-.05a.57.57,0,0,1,.59.57A.58.58,0,0,1,359.07,352.59Z"/><path class="cls-10" d="M359.2,369.75l-6.79.05a.59.59,0,0,1-.59-.58.6.6,0,0,1,.58-.59l6.79-.05a.59.59,0,0,1,0,1.17Z"/><path class="cls-10" d="M370.39,369.66l-6.8.06a.6.6,0,0,1-.59-.58.58.58,0,0,1,.58-.59l6.8-.05a.57.57,0,0,1,.58.58A.57.57,0,0,1,370.39,369.66Z"/><path class="cls-10" d="M337.3,359.14l-21.82.16a.58.58,0,1,1,0-1.16l21.82-.17a.59.59,0,0,1,0,1.17Z"/><path class="cls-10" d="M350.89,359l-9.58.07a.58.58,0,0,1-.58-.58.57.57,0,0,1,.57-.59l9.58-.07a.59.59,0,0,1,0,1.17Z"/><rect class="cls-28" x="316.05" y="96.98" width="83.88" height="135.72" rx="3.43" transform="translate(-1.66 3.66) rotate(-0.59)"/><rect class="cls-10" x="311.47" y="91.02" width="83.88" height="135.72" rx="3.43" transform="translate(-1.6 3.62) rotate(-0.59)"/><path class="cls-17" d="M395,94l.07,7.2-83.87.86-.08-7.38a3.29,3.29,0,0,1,3.25-3.32l77.14-.78A3.45,3.45,0,0,1,395,94Z"/><path class="cls-10" d="M384.62,95a.49.49,0,0,1-.5-.49.5.5,0,0,1,.49-.51l6.29-.06a.5.5,0,1,1,0,1l-6.29.06Z"/><path class="cls-10" d="M384.63,96.56a.5.5,0,1,1,0-1l6.29-.06a.53.53,0,0,1,.5.49.5.5,0,0,1-.49.51l-6.29.06Z"/><path class="cls-10" d="M384.65,98.17a.5.5,0,0,1,0-1l6.29-.07h0a.51.51,0,0,1,.5.5.49.49,0,0,1-.49.5l-6.3.07Z"/><path class="cls-10" d="M318.64,99.84a.5.5,0,0,1-.35-.14L316,97.43a.69.69,0,0,1,0-1l2.17-2.22a.51.51,0,0,1,.71,0,.5.5,0,0,1,0,.71l-2,2L319,99a.5.5,0,0,1,0,.71A.47.47,0,0,1,318.64,99.84Z"/><path class="cls-21" d="M392.42,226.57l-77.26.43a3.38,3.38,0,0,1-3.4-3.36l-.15-26.77,84-.47.15,26.77A3.38,3.38,0,0,1,392.42,226.57Z"/><rect class="cls-20" x="335.18" y="114.48" width="35.99" height="5.93" rx="1.12" transform="translate(-0.66 1.99) rotate(-0.32)"/><rect class="cls-29" x="321.06" y="134" width="64.47" height="10.63" rx="4.73" transform="translate(-0.78 1.99) rotate(-0.32)"/><path class="cls-22" d="M329.89,139.49a3.27,3.27,0,1,1-3.29-3.25A3.26,3.26,0,0,1,329.89,139.49Z"/><path class="cls-10" d="M327.79,138.57a1.18,1.18,0,1,1-1.18-1.17A1.17,1.17,0,0,1,327.79,138.57Z"/><path class="cls-10" d="M328.38,141.61l-3.49,0v-.43a1.83,1.83,0,0,1,1.83-1.84h0a1.66,1.66,0,0,1,1.67,1.64Z"/><rect class="cls-29" x="321.16" y="151.32" width="64.47" height="10.63" rx="4.73" transform="translate(-0.88 1.99) rotate(-0.32)"/><path class="cls-22" d="M330,156.8a3.27,3.27,0,1,1-3.29-3.25A3.27,3.27,0,0,1,330,156.8Z"/><rect class="cls-10" x="325.3" y="156.28" width="2.84" height="2.6" rx="0.32" transform="translate(-0.88 1.83) rotate(-0.32)"/><path class="cls-10" d="M325.57,156.52v-.81a.83.83,0,0,1,.23-.57.79.79,0,0,1,.56-.23h.75a.75.75,0,0,1,.51.21.72.72,0,0,1,.21.51v.88h-.25v-.89a.45.45,0,0,0-.14-.33.47.47,0,0,0-.33-.14h-.75a.51.51,0,0,0-.38.16.51.51,0,0,0-.16.39v.81Z"/><path class="cls-18" d="M366.45,181.12l-23.72.14a5.2,5.2,0,0,1-5.23-5.17h0a5.18,5.18,0,0,1,5.17-5.23l23.72-.14a5.2,5.2,0,0,1,5.23,5.17h0A5.18,5.18,0,0,1,366.45,181.12Z"/><path class="cls-10" d="M330.72,207.91a1,1,0,0,1,0-2l45.92-.26h0a1,1,0,0,1,0,2l-45.92.26Z"/><path class="cls-10" d="M340.06,214.82a1,1,0,0,1-1-1,1,1,0,0,1,1-1l27.3-.16h0a1,1,0,0,1,1,1,1,1,0,0,1-1,1l-27.3.16Z"/><rect class="cls-28" x="257.41" y="184.45" width="83.88" height="135.72" rx="3.43" transform="translate(-2.56 3.07) rotate(-0.59)"/><rect class="cls-10" x="252.82" y="178.49" width="83.88" height="135.72" rx="3.43" transform="matrix(1, -0.01, 0.01, 1, -2.5, 3.02)"/><rect class="cls-30" x="252.82" y="178.49" width="83.88" height="135.72" rx="3.43" transform="matrix(1, -0.01, 0.01, 1, -2.5, 3.02)"/><path class="cls-17" d="M336.32,181.45l.07,7.2-83.87.86-.08-7.37a3.29,3.29,0,0,1,3.26-3.33l77.13-.78A3.45,3.45,0,0,1,336.32,181.45Z"/><path class="cls-10" d="M326,182.42a.5.5,0,0,1-.5-.49.51.51,0,0,1,.49-.51l6.3-.06a.53.53,0,0,1,.5.5.5.5,0,0,1-.49.5l-6.3.06Z"/><path class="cls-10" d="M326,184a.5.5,0,0,1,0-1l6.29-.06h0a.5.5,0,1,1,0,1L326,184Z"/><path class="cls-10" d="M326,185.64a.51.51,0,0,1-.5-.5.5.5,0,0,1,.5-.5l6.29-.06h0a.49.49,0,0,1,.5.49.5.5,0,0,1-.49.51l-6.29.06Z"/><path class="cls-10" d="M260,187.31a.52.52,0,0,1-.35-.14l-2.31-2.27a.69.69,0,0,1,0-1l2.17-2.22a.51.51,0,0,1,.71,0,.5.5,0,0,1,0,.71l-2,2,2.09,2a.5.5,0,0,1-.35.86Z"/><g class="cls-23"><path class="cls-10" d="M333.78,314l-77.27.43a3.37,3.37,0,0,1-3.4-3.35L253,284.34l84-.47.15,26.77A3.37,3.37,0,0,1,333.78,314Z"/><path class="cls-10" d="M256.49,315a3.89,3.89,0,0,1-3.88-3.85l-.15-27.28,85-.48.15,27.28a3.88,3.88,0,0,1-3.85,3.9l-77.27.43Zm-3-30.13.14,26.27a2.87,2.87,0,0,0,.86,2,2.84,2.84,0,0,0,2,.83h0l77.26-.43a2.88,2.88,0,0,0,2.86-2.9l-.15-26.27Z"/></g><rect class="cls-10" x="292.17" y="172.15" width="9.94" height="64.47" rx="1.95" transform="translate(92.39 501.27) rotate(-89.93)"/><path class="cls-10" d="M327.71,217.1,266.54,217a1.65,1.65,0,0,1-1.65-1.65h0a1.64,1.64,0,0,1,1.65-1.64l61.18.07a1.64,1.64,0,0,1,1.64,1.65h0A1.65,1.65,0,0,1,327.71,217.1Z"/><path class="cls-10" d="M327.7,224.69l-61.17-.07a1.65,1.65,0,0,1-1.65-1.65h0a1.65,1.65,0,0,1,1.65-1.65l61.18.08a1.64,1.64,0,0,1,1.64,1.65h0A1.64,1.64,0,0,1,327.7,224.69Z"/><path class="cls-18" d="M273.16,235.83a4.15,4.15,0,1,1-4.14-4.15A4.14,4.14,0,0,1,273.16,235.83Z"/><path class="cls-18" d="M273.14,254.63a4.15,4.15,0,1,1-4.14-4.15A4.15,4.15,0,0,1,273.14,254.63Z"/><path class="cls-18" d="M273.12,272.88a4.15,4.15,0,1,1-4.15-4.15A4.15,4.15,0,0,1,273.12,272.88Z"/><path class="cls-10" d="M315.19,234.36h0l-39.68-.05a.5.5,0,0,1-.5-.5.51.51,0,0,1,.5-.5h0l39.67.05a.5.5,0,0,1,.5.5A.5.5,0,0,1,315.19,234.36Z"/><path class="cls-10" d="M295.35,238.56h0l-19.84,0a.5.5,0,0,1-.5-.5.5.5,0,0,1,.5-.5h0l19.84,0a.5.5,0,0,1,.5.5A.51.51,0,0,1,295.35,238.56Z"/><path class="cls-10" d="M315.17,253.78h0l-39.68-.05a.5.5,0,0,1-.5-.5.5.5,0,0,1,.5-.5h0l39.68.05a.5.5,0,0,1,.5.5A.5.5,0,0,1,315.17,253.78Z"/><path class="cls-10" d="M295.32,258h0l-19.84,0a.5.5,0,0,1,0-1h0l19.84,0a.5.5,0,0,1,.49.51A.49.49,0,0,1,295.32,258Z"/><path class="cls-10" d="M315.15,271.51h0l-39.68-.05a.5.5,0,0,1-.5-.5.5.5,0,0,1,.5-.5h0l39.68.05a.5.5,0,0,1,.5.5A.51.51,0,0,1,315.15,271.51Z"/><path class="cls-10" d="M295.3,275.7h0l-19.84,0a.5.5,0,0,1,0-1h0l19.84,0a.5.5,0,0,1,.5.51A.49.49,0,0,1,295.3,275.7Z"/><path class="cls-10" d="M272.07,295.38a1,1,0,0,1,0-2l45.92-.26h0a1,1,0,0,1,0,2l-45.91.26Z"/><path class="cls-10" d="M281.42,302.29a1,1,0,0,1-1-1,1,1,0,0,1,1-1l27.3-.16h0a1,1,0,0,1,0,2l-27.31.16Z"/><rect class="cls-17" x="85.59" y="135.94" width="74.91" height="24.06" rx="1.61"/><path class="cls-18" d="M98.19,155.26a7.75,7.75,0,1,1,7.74-7.74A7.75,7.75,0,0,1,98.19,155.26Z"/><path class="cls-10" d="M97.5,150.42l-2.89-4a.77.77,0,0,1,.74-1.21.83.83,0,0,1,.5.31l1.84,2.55,9.21-9.21a.79.79,0,0,1,.54-.22h0a.76.76,0,0,1,.54,1.3Z"/><line class="cls-10" x1="112.49" y1="144" x2="150.82" y2="144"/><path class="cls-31" d="M150.82,144.5H112.49a.5.5,0,0,1,0-1h38.33a.5.5,0,0,1,0,1Z"/><line class="cls-10" x1="112.49" y1="148.55" x2="129.62" y2="148.55"/><path class="cls-31" d="M129.62,149.05H112.49a.51.51,0,0,1-.5-.5.5.5,0,0,1,.5-.5h17.13a.5.5,0,0,1,.5.5A.51.51,0,0,1,129.62,149.05Z"/><line class="cls-10" x1="133.69" y1="148.55" x2="150.82" y2="148.55"/><path class="cls-31" d="M150.82,149.05H133.69a.51.51,0,0,1-.5-.5.5.5,0,0,1,.5-.5h17.13a.5.5,0,0,1,.5.5A.5.5,0,0,1,150.82,149.05Z"/><line class="cls-10" x1="112.49" y1="153.3" x2="150.82" y2="153.3"/><path class="cls-31" d="M150.82,153.8H112.49a.5.5,0,0,1-.5-.5.51.51,0,0,1,.5-.5h38.33a.5.5,0,0,1,.5.5A.5.5,0,0,1,150.82,153.8Z"/><rect class="cls-17" x="359.78" y="246.5" width="74.91" height="24.06" rx="1.61"/><path class="cls-18" d="M372.38,265.82a7.75,7.75,0,1,1,7.74-7.75A7.76,7.76,0,0,1,372.38,265.82Z"/><path class="cls-10" d="M371.69,261l-2.9-4a.76.76,0,0,1-.13-.57.76.76,0,0,1,.87-.63.7.7,0,0,1,.5.31l1.85,2.55,9.21-9.21a.76.76,0,1,1,1.08,1.08Zm-2.47-4.32h0Z"/><line class="cls-10" x1="386.68" y1="254.55" x2="425.01" y2="254.55"/><path class="cls-31" d="M425,255.05H386.68a.5.5,0,0,1-.5-.5.5.5,0,0,1,.5-.5H425a.51.51,0,0,1,.5.5A.5.5,0,0,1,425,255.05Z"/><line class="cls-10" x1="386.68" y1="259.1" x2="403.8" y2="259.1"/><path class="cls-31" d="M403.81,259.6H386.68a.5.5,0,1,1,0-1h17.13a.5.5,0,1,1,0,1Z"/><line class="cls-10" x1="407.88" y1="259.1" x2="425.01" y2="259.1"/><path class="cls-31" d="M425,259.6H407.88a.5.5,0,0,1,0-1H425a.5.5,0,0,1,0,1Z"/><line class="cls-10" x1="386.68" y1="263.86" x2="425.01" y2="263.86"/><path class="cls-31" d="M425,264.36H386.68a.5.5,0,0,1-.5-.5.5.5,0,0,1,.5-.5H425a.5.5,0,0,1,.5.5A.51.51,0,0,1,425,264.36Z"/></g></g></svg>