<svg xmlns="http://www.w3.org/2000/svg" xmlns:xlink="http://www.w3.org/1999/xlink" viewBox="0 0 94.78 92.99"><defs><style>.cls-1{isolation:isolate;}.cls-2,.cls-3{mix-blend-mode:multiply;}.cls-2{fill:url(#Degradado_sin_nombre_85);}.cls-3{fill:url(#Degradado_sin_nombre_85-2);}.cls-4{fill:#fff;fill-rule:evenodd;}</style><linearGradient id="Degradado_sin_nombre_85" x1="-146.69" y1="12.25" x2="-59.69" y2="12.25" gradientTransform="matrix(0.88, -0.47, 0.47, 0.88, 136.89, -5.95)" gradientUnits="userSpaceOnUse"><stop offset="0" stop-color="#692237"/><stop offset="0.54" stop-color="#ff2828"/><stop offset="1" stop-color="#ff9c58"/></linearGradient><linearGradient id="Degradado_sin_nombre_85-2" x1="5.22" y1="-134.97" x2="4.94" y2="-39.84" gradientTransform="translate(85.85 -33.72) rotate(-157.57)" xlink:href="#Degradado_sin_nombre_85"/></defs><title>Asset 3</title><g class="cls-1"><g id="Layer_2" data-name="Layer 2"><g id="OBJECTS"><path class="cls-2" d="M85.93,88.41a18.46,18.46,0,0,1-21.62,2c-4.85-3-8-8.2-12.62-11.58-5.41-4-12.33-5.12-19-6-8.35-1.09-17.08-2-23.53-8.22A14.42,14.42,0,0,1,4.53,54.42C4.44,46,12,41.62,18.9,38.46c5.88-2.71,12.39-5.77,14.84-11.76,1.46-3.55,1.21-7.55,2-11.3A19.6,19.6,0,0,1,60.46.78c.79.22,1.58.44,2.38.62A25.82,25.82,0,0,1,74.2,7a26.13,26.13,0,0,1,9,20.59c-.38,8.83-5.24,17.84-2.13,26.12,1.89,5,6.39,8.6,8.81,13.39A18.45,18.45,0,0,1,85.93,88.41Z"/><path class="cls-3" d="M85,67.57c-5,1.75-10.45,2.07-15.22,4.35-8.49,4-13.53,13.62-22.33,16.91A18.58,18.58,0,0,1,25.2,80.24c-2.47-4.8-2.71-10.55-5.42-15.22C15.94,58.37,7.92,55.2,3.43,49a19.39,19.39,0,0,1,.12-22.2,19.42,19.42,0,0,1,21.19-6.68c5.63,1.91,10.38,6.45,16.3,7,5.39.5,10.46-2.48,14.79-5.71s8.57-7,13.81-8.32c8.66-2.17,18,1.27,15.52,13.05-.68,3.23-2.29,6.32-2.21,9.63.2,8.15,11.68,12.58,11.83,20.74C94.88,61.74,90,65.82,85,67.57Z"/><path class="cls-4" d="M74.1,40.6s-.52-3.65-2-5.24a7.2,7.2,0,0,0-5-2.24c-7.08-.53-17.69-.53-17.69-.53h-.06s-10.58,0-17.65.53a7.16,7.16,0,0,0-5.07,2.24c-1.51,1.59-2,5.24-2,5.24A81,81,0,0,0,24,49.1v4a79.47,79.47,0,0,0,.52,8.5s.52,3.65,2,5.27c1.92,2.11,4.44,2,5.59,2.24,4,.41,17.19.55,17.19.55S60,69.64,67,69.14a7.06,7.06,0,0,0,5-2.24c1.51-1.62,2-5.27,2-5.27a84.26,84.26,0,0,0,.49-8.5v-4c0-4.22-.49-8.5-.49-8.5Zm-16.34,10L44.08,58V43.15l6.19,3.37Z"/></g></g></g></svg>