<svg xmlns="http://www.w3.org/2000/svg" xmlns:xlink="http://www.w3.org/1999/xlink" viewBox="0 0 94.85 88.2"><defs><style>.cls-1{isolation:isolate;}.cls-2,.cls-3{mix-blend-mode:multiply;}.cls-2{fill:url(#Degradado_sin_nombre_45);}.cls-3{fill:url(#Degradado_sin_nombre_45-2);}.cls-4{fill:#fff;fill-rule:evenodd;}</style><linearGradient id="Degradado_sin_nombre_45" x1="57.12" y1="100.59" x2="60.34" y2="-15.39" gradientTransform="translate(2.04 -15.67) rotate(14.18)" gradientUnits="userSpaceOnUse"><stop offset="0" stop-color="#7818c6"/><stop offset="0.54" stop-color="#ff65a5"/><stop offset="1" stop-color="#ffc641"/></linearGradient><linearGradient id="Degradado_sin_nombre_45-2" x1="73.11" y1="2.4" x2="72.81" y2="104.2" gradientTransform="matrix(0.85, 0.35, -0.35, 0.84, 4.72, -20.62)" xlink:href="#Degradado_sin_nombre_45"/></defs><title>fluid-instagram</title><g class="cls-1"><g id="Layer_2" data-name="Layer 2"><g id="OBJECTS"><path class="cls-2" d="M79.36,83.28a17.68,17.68,0,0,1-20.6,2.81c-4.77-2.7-8-7.5-12.57-10.54-5.35-3.56-12-4.37-18.43-4.92-8-.69-16.43-1.24-22.86-6.86A13.79,13.79,0,0,1,0,54.25c-.44-8.06,6.63-12.58,13.07-15.89,5.51-2.85,11.61-6,13.7-11.89,1.24-3.46.83-7.28,1.46-10.9A19.19,19.19,0,0,1,39.47,1.45,19,19,0,0,1,51.24.53c.76.18,1.53.35,2.31.49a24.72,24.72,0,0,1,11.1,4.83,25,25,0,0,1,9.44,19.32c0,8.46-4.25,17.3-.91,25.08,2,4.72,6.48,8,9,12.44A17.66,17.66,0,0,1,79.36,83.28Z"/><path class="cls-3" d="M11.55,28c4.88-1.7,10.23-2,14.9-4.22,8.31-3.93,13.22-13.3,21.84-16.5,8-3,17.86.89,21.78,8.45,2.43,4.7,2.68,10.34,5.34,14.92,3.78,6.51,11.64,9.63,16,15.74a19,19,0,0,1-.07,21.73,18.93,18.93,0,0,1-20.73,6.49c-5.53-1.87-10.18-6.34-16-6.87-5.28-.49-10.24,2.41-14.48,5.57s-8.37,6.83-13.5,8.1C18.21,83.48,9,80.09,11.45,68.56c.67-3.16,2.23-6.18,2.15-9.42C13.38,51.16,2.14,46.8,2,38.81,1.86,33.64,6.67,29.67,11.55,28Z"/><path class="cls-4" d="M35.74,47.25A12.68,12.68,0,1,1,48.41,59.94,12.7,12.7,0,0,1,35.74,47.25ZM61.51,22.43H35.33A11.78,11.78,0,0,0,23.59,34.17V60.35A11.8,11.8,0,0,0,35.33,72.09H61.51A11.77,11.77,0,0,0,73.25,60.35V34.17A11.75,11.75,0,0,0,61.51,22.43ZM35.33,25.37H61.51a8.81,8.81,0,0,1,8.81,8.8V60.35a8.82,8.82,0,0,1-8.81,8.8H35.33a8.81,8.81,0,0,1-8.8-8.8V34.17a8.81,8.81,0,0,1,8.8-8.8Zm28.79,3.7a2.58,2.58,0,1,0,2.58,2.57,2.57,2.57,0,0,0-2.58-2.57Zm.3,18.18a16,16,0,1,0-16,16,16,16,0,0,0,16-16Z"/></g></g></g></svg>