<svg xmlns="http://www.w3.org/2000/svg" xmlns:xlink="http://www.w3.org/1999/xlink" viewBox="0 0 96.91 93.75"><defs><style>.cls-1{isolation:isolate;}.cls-2,.cls-3{mix-blend-mode:multiply;}.cls-2{fill:url(#Degradado_sin_nombre_65);}.cls-3{fill:url(#Degradado_sin_nombre_65-2);}.cls-4{fill:#fff;fill-rule:evenodd;}</style><linearGradient id="Degradado_sin_nombre_65" x1="-12.98" y1="45.71" x2="74.02" y2="45.71" gradientTransform="matrix(0.88, -0.47, 0.47, 0.88, 0.17, 27.2)" gradientUnits="userSpaceOnUse"><stop offset="0" stop-color="#336037"/><stop offset="0.54" stop-color="#05c867"/><stop offset="1" stop-color="#e0ff41"/></linearGradient><linearGradient id="Degradado_sin_nombre_65-2" x1="33.31" y1="-5.15" x2="30.36" y2="89.87" xlink:href="#Degradado_sin_nombre_65"/></defs><title>Asset 5</title><g class="cls-1"><g id="Layer_2" data-name="Layer 2"><g id="OBJECTS"><path class="cls-2" d="M83,88.41a18.46,18.46,0,0,1-21.62,2c-4.85-3-8-8.2-12.62-11.58-5.41-4-12.33-5.12-19-6-8.35-1.09-17.08-2-23.53-8.22A14.39,14.39,0,0,1,1.59,54.42C1.51,46,9.1,41.62,16,38.46c5.88-2.71,12.39-5.77,14.84-11.76,1.46-3.55,1.21-7.55,2-11.3A19.6,19.6,0,0,1,57.53.78c.79.22,1.58.44,2.38.62a25.51,25.51,0,0,1,20.3,26.15c-.37,8.83-5.24,17.84-2.12,26.12,1.89,5,6.39,8.6,8.81,13.39A18.45,18.45,0,0,1,83,88.41Z"/><path class="cls-3" d="M90.53,58.54c-4.19,3.18-9.27,5.15-13.11,8.75-6.82,6.41-8.69,17-16,22.83-6.79,5.35-17.56,4.71-23.68-1.39-3.81-3.8-5.78-9.19-9.77-12.8C22.27,70.8,13.7,70.23,7.55,65.68A19.29,19.29,0,0,1,.92,44.59,19.31,19.31,0,0,1,19,31.82c5.92.09,11.81,3,17.58,1.66,5.26-1.17,9.17-5.53,12.3-9.91s6-9.24,10.57-12.09C67,6.79,76.91,7.21,78.12,19.15c.33,3.27-.25,6.69.82,9.8,2.67,7.67,14.9,8.39,17.52,16.08C98.17,50,94.73,55.37,90.53,58.54Z"/><path class="cls-4" d="M79,47.69a24.81,24.81,0,0,0-49.58-.47,7.53,7.53,0,0,0-.05,1.07A24.59,24.59,0,0,0,32.93,61L28.44,74.23,42.2,69.87A24.88,24.88,0,0,0,79,48.29c0-.22,0-.38,0-.6ZM65.56,53.28c-.63-.3-3.59-1.78-4.14-2s-1-.3-1.4.33a24.38,24.38,0,0,1-1.92,2.33c-.35.44-.71.47-1.28.19a15.35,15.35,0,0,1-4.91-3A18,18,0,0,1,48.51,47c-.33-.66-.06-.93.24-1.29a7.51,7.51,0,0,0,.94-1,1.51,1.51,0,0,0,.22-.28,8,8,0,0,0,.38-.71.92.92,0,0,0-.06-1c-.1-.3-1.34-3.32-1.86-4.5s-1-1-1.34-1-.77-.06-1.18-.06a2.11,2.11,0,0,0-1.62.77,6.51,6.51,0,0,0-2.17,5,6.28,6.28,0,0,0,.36,2,13.61,13.61,0,0,0,2.14,4.2c.3.41,4.19,6.69,10.39,9.1s6.22,1.59,7.32,1.51,3.59-1.43,4.11-2.88a4.83,4.83,0,0,0,.33-2.88,3.55,3.55,0,0,0-1.15-.66ZM54.18,69a20.77,20.77,0,0,1-11.46-3.43l-8,2.55,2.57-7.7a20.54,20.54,0,0,1-4-12.15,15,15,0,0,1,.11-2A20.88,20.88,0,0,1,75,46.68a14.62,14.62,0,0,1,.06,1.61A20.83,20.83,0,0,1,54.18,69Z"/></g></g></g></svg>