<svg xmlns="http://www.w3.org/2000/svg" xmlns:xlink="http://www.w3.org/1999/xlink" viewBox="0 0 86.24 87.82"><defs><style>.cls-1{isolation:isolate;}.cls-2,.cls-3{mix-blend-mode:multiply;}.cls-2{fill:url(#Degradado_sin_nombre_184);}.cls-3{fill:url(#Degradado_sin_nombre_184-2);}.cls-4{fill:#fff;}</style><linearGradient id="Degradado_sin_nombre_184" x1="45.97" y1="-7.1" x2="41.52" y2="101.3" gradientUnits="userSpaceOnUse"><stop offset="0" stop-color="#ff9e00"/><stop offset="0.54" stop-color="#ffeb28"/><stop offset="1" stop-color="#ffa"/></linearGradient><linearGradient id="Degradado_sin_nombre_184-2" x1="85.65" y1="47.86" x2="-40.96" y2="45.02" xlink:href="#Degradado_sin_nombre_184"/></defs><title>fluid-email</title><g class="cls-1"><g id="Layer_2" data-name="Layer 2"><g id="OBJECTS"><path class="cls-2" d="M85.65,60.78A17.76,17.76,0,0,1,69,73.39c-5.51,0-10.71-2.62-16.2-3-6.44-.48-12.67,2.1-18.56,4.78-7.37,3.35-15,7-23.39,5.26a13.84,13.84,0,0,1-9-5.92c-4.36-6.84-.39-14.27,3.61-20.35,3.42-5.21,7.17-11,6.13-17.15C11,33.34,8.77,30.2,7.54,26.72A19.34,19.34,0,0,1,10.4,8.82a19.12,19.12,0,0,1,9.85-6.6c.75-.22,1.51-.45,2.26-.71A24.66,24.66,0,0,1,34.61.27,25.09,25.09,0,0,1,52.39,12.51C56.58,19.91,57.2,29.75,64,34.92c4.09,3.13,9.59,3.77,14,6.44A17.77,17.77,0,0,1,85.65,60.78Z"/><path class="cls-3" d="M23.36,87.67c-4.53-.76-8-4.7-9.53-9s-1.34-9.08-1-13.66.93-9.23.16-13.76A24,24,0,0,0,7.75,39.78C5.4,37,2.3,34.51,1.56,30.94c-1-4.64,2.77-9.21,7.21-10.87s9.35-1.11,14.05-.49,9.57,1.26,14.08-.21c6.15-2,10.43-7.57,16.09-10.72,5-2.76,10.9-3,16.53-2.15s13,4.68,14.49,8.13a10.3,10.3,0,0,1-1.57,10.63C78.9,29.37,72.26,30.46,70,35.37c-1.49,3.16-.61,7,1,10.06s4,5.75,5.63,8.83,2.58,6.86,1.15,10.05c-2,4.42-7.58,5.9-12.42,5.81s-9.84-1.19-14.46.26c-5.35,1.68-9.06,6.37-13,10.4S28.88,88.61,23.36,87.67Z"/><path class="cls-4" d="M57.63,65.22H21.4a8.1,8.1,0,0,1-8.1-8.09V35.59a8.11,8.11,0,0,1,8.1-8.1H57.63a8.12,8.12,0,0,1,8.1,8.1V57.13A8.11,8.11,0,0,1,57.63,65.22ZM21.4,30.52a5.08,5.08,0,0,0-5.07,5.07V57.13A5.08,5.08,0,0,0,21.4,62.2H57.63a5.08,5.08,0,0,0,5.07-5.07V35.59a5.08,5.08,0,0,0-5.07-5.07Z"/><path class="cls-4" d="M39.51,50.6a11.42,11.42,0,0,1-4.81-1.07l-.15-.08L14,36.88,15.6,34.3,36.05,46.82a8.36,8.36,0,0,0,6.92,0L63.42,34.3,65,36.88,44.32,49.53A11.42,11.42,0,0,1,39.51,50.6Z"/><rect class="cls-4" x="13.26" y="51.42" width="21.15" height="3.03" transform="translate(-24.14 20.24) rotate(-31.48)"/><rect class="cls-4" x="53.4" y="41.86" width="3.03" height="21.8" transform="translate(-18.76 72.05) rotate(-58.52)"/></g></g></g></svg>