<svg width="1210" height="350" viewBox="0 0 1210 350" fill="none" xmlns="http://www.w3.org/2000/svg">
<path d="M1210 0H0V350C4.2172 298.433 26.4166 180.157 81.4764 119.592C147.265 119.592 56.6792 223.824 126.516 311.599C196.353 399.373 287.951 195.298 361.836 141.536C435.721 87.7743 540.983 223.824 596.144 311.599C651.305 399.373 762.133 195.298 831.97 119.592C901.807 43.8871 998.971 223.824 1026.8 249.06C1049.07 269.248 1076.91 240.648 1088.04 223.824C1094.28 189.08 1121.34 119.592 1179.64 119.592C1198.26 139.781 1207.64 178.474 1210 195.298V0Z" fill="white"/>
</svg>
