<svg width="1230" height="100" viewBox="0 0 1230 100" fill="none" xmlns="http://www.w3.org/2000/svg">
<path d="M1230 0H0V100C4.28691 85.2665 26.8532 51.4734 82.8231 34.1693C149.699 34.1693 57.6161 63.9498 128.607 89.0282C199.598 114.107 292.71 55.7994 367.817 40.4389C442.923 25.0784 549.925 63.9498 605.997 89.0282C662.07 114.107 774.73 55.7994 845.721 34.1693C916.713 12.5392 1015.48 63.9498 1043.78 71.1599C1066.41 76.9279 1094.71 68.7565 1106.02 63.9498C1112.37 54.023 1139.87 34.1693 1199.13 34.1693C1218.07 39.9373 1227.6 50.9927 1230 55.7994V0Z" fill="white"/>
</svg>
