<?xml version="1.0" standalone="no"?>
<!DOCTYPE svg PUBLIC "-//W3C//DTD SVG 20010904//EN"
 "http://www.w3.org/TR/2001/REC-SVG-20010904/DTD/svg10.dtd">
<svg version="1.0" xmlns="http://www.w3.org/2000/svg"
 width="1280.000000pt" height="853.000000pt" viewBox="0 0 1280.000000 853.000000"
 preserveAspectRatio="xMidYMid meet">

<g transform="translate(0.000000,853.000000) scale(0.100000,-0.100000)"
fill="#000000" stroke="none">
<path d="M5808 7501 c-95 -31 -158 -99 -166 -180 -13 -137 85 -214 264 -209
67 2 79 -3 87 -31 8 -30 -18 -57 -67 -71 -54 -15 -102 -7 -131 20 -20 19 -21
19 -68 -22 l-48 -41 23 -24 c43 -46 97 -67 173 -67 182 0 294 137 223 273 -38
73 -62 85 -187 91 -69 3 -114 10 -125 19 -24 20 -20 64 10 92 21 20 36 24 84
24 48 0 63 -4 84 -24 l26 -25 42 40 c24 21 45 40 47 42 10 5 -46 55 -84 74
-43 23 -144 33 -187 19z"/>
<path d="M7067 7483 c-3 -5 -19 -60 -37 -123 -17 -63 -34 -122 -36 -131 -4
-13 9 -22 55 -37 l61 -21 20 68 c11 38 20 73 20 80 0 28 102 0 130 -37 18 -22
20 -35 15 -67 -10 -62 -29 -85 -73 -85 -47 0 -163 32 -238 65 -31 14 -58 24
-60 23 -1 -2 -13 -29 -27 -60 l-25 -57 38 -15 38 -15 -24 -88 c-13 -48 -24
-91 -24 -94 0 -3 19 -11 43 -18 23 -7 50 -14 59 -17 17 -5 21 5 64 157 4 15
10 15 62 3 82 -20 131 -17 182 9 61 30 102 98 108 177 6 85 -3 121 -44 169
-41 47 -66 59 -197 95 -106 29 -104 29 -110 19z"/>
<path d="M5005 7210 c-93 -49 -169 -93 -168 -98 2 -8 282 -543 287 -549 3 -3
349 177 360 188 5 4 -3 31 -20 63 l-28 54 -121 -64 c-67 -35 -126 -64 -132
-64 -13 0 -46 71 -36 81 4 4 43 26 86 49 42 23 77 44 77 46 0 5 -40 87 -46 93
-2 2 -43 -17 -93 -43 l-89 -46 -36 64 c-20 35 -36 69 -36 74 0 6 52 38 115 72
63 33 115 63 115 66 0 10 -55 104 -60 104 -3 0 -81 -41 -175 -90z"/>
<path d="M7816 7163 c-14 -21 -88 -139 -165 -262 -111 -177 -139 -227 -129
-236 19 -17 340 -217 342 -213 1 2 10 17 21 33 10 17 25 40 32 52 13 20 9 24
-102 93 -63 40 -118 76 -121 81 -8 14 37 81 51 75 7 -2 44 -25 84 -50 39 -25
73 -46 76 -46 8 0 55 74 55 87 0 6 -36 33 -80 60 -44 26 -80 51 -80 55 0 4 18
36 41 72 47 75 29 77 174 -14 52 -33 96 -60 98 -60 10 0 67 104 60 110 -16 14
-319 200 -326 200 -4 0 -18 -17 -31 -37z"/>
<path d="M4312 6711 l-183 -176 46 -45 45 -44 48 45 c26 24 57 53 70 64 l23
19 174 -179 173 -180 46 44 45 44 -174 181 -174 181 67 68 67 67 -45 44 -45
44 -183 -177z"/>
<path d="M6399 6704 c-31 -30 -90 -35 -118 -10 -23 21 -75 21 -92 -1 -34 -41
-148 -57 -199 -28 -43 24 -77 19 -95 -15 -28 -55 -98 -75 -156 -44 -45 23 -71
15 -91 -28 -30 -64 -88 -86 -154 -58 -44 19 -64 8 -64 -34 0 -27 -6 -40 -25
-52 -24 -16 -28 -16 -64 1 -21 9 -49 15 -62 13 -22 -3 -24 -8 -24 -53 0 -62
-22 -77 -91 -63 -57 12 -74 0 -74 -53 0 -56 -30 -83 -81 -75 -58 9 -79 -6 -79
-58 0 -56 -30 -86 -86 -86 -60 0 -78 -18 -71 -67 9 -52 -10 -76 -78 -100 l-50
-19 -5 -56 c-6 -68 -29 -98 -76 -98 -42 0 -69 -35 -60 -77 8 -37 -2 -49 -49
-65 -36 -12 -40 -17 -47 -58 -5 -25 -6 -57 -2 -72 5 -24 0 -29 -34 -47 -35
-18 -40 -26 -46 -65 -4 -24 -4 -56 0 -70 5 -23 2 -28 -25 -37 -30 -11 -46 -38
-40 -70 1 -8 -1 -22 -5 -31 -5 -10 -1 -27 9 -41 16 -25 16 -26 -12 -29 -36 -4
-42 -31 -14 -69 26 -36 26 -37 -4 -49 -28 -10 -44 -55 -26 -73 17 -17 13 -34
-9 -40 -14 -3 -20 -14 -20 -31 0 -19 5 -26 20 -26 26 0 25 -11 0 -33 -18 -15
-20 -25 -14 -70 4 -29 15 -61 25 -73 26 -28 24 -45 -11 -89 -36 -45 -36 -56
-5 -120 24 -49 21 -64 -12 -65 -7 0 -13 -12 -13 -28 0 -22 7 -30 30 -39 27
-10 29 -15 24 -42 -5 -23 -2 -37 11 -51 16 -18 17 -22 3 -37 -47 -54 -44 -93
6 -93 18 0 35 -2 38 -5 7 -8 -14 -69 -32 -90 -20 -24 5 -65 50 -80 31 -11 35
-16 33 -45 -1 -18 -7 -44 -14 -58 -12 -22 -11 -26 14 -48 16 -13 34 -24 41
-24 29 0 39 -28 27 -76 -15 -58 -7 -82 27 -90 52 -10 57 -18 57 -80 l0 -59 67
-3 c59 -3 70 -6 88 -29 14 -18 20 -41 20 -74 0 -44 3 -50 30 -64 16 -8 35 -15
43 -15 31 0 57 -40 57 -88 0 -27 5 -53 12 -60 7 -7 33 -12 59 -12 39 0 51 -5
68 -26 13 -17 21 -41 21 -65 0 -46 21 -61 74 -52 30 5 41 1 62 -18 15 -14 24
-33 23 -49 -5 -65 6 -74 76 -61 63 12 90 -9 87 -67 -4 -56 18 -68 78 -41 57
26 90 14 90 -30 0 -16 3 -36 6 -45 8 -20 46 -21 83 -1 21 11 37 12 63 5 39
-11 58 -30 79 -75 17 -35 50 -44 84 -21 49 32 123 12 154 -40 23 -39 60 -45
100 -18 37 26 139 15 184 -19 40 -30 74 -34 103 -12 31 24 91 19 120 -10 33
-33 49 -32 92 6 32 28 40 31 84 27 31 -3 57 -13 71 -27 32 -29 43 -27 88 19
44 44 46 45 118 28 50 -11 50 -11 81 21 32 35 32 35 126 16 25 -6 33 -3 47 18
35 54 42 57 94 40 44 -15 48 -15 57 2 47 81 111 115 172 93 32 -11 37 -11 50
7 8 10 14 29 14 41 0 25 43 64 69 64 9 0 24 -7 35 -15 28 -21 52 -3 70 52 22
65 74 108 122 100 49 -8 64 0 64 35 0 64 58 128 116 128 42 0 64 23 64 67 0
69 33 99 125 115 17 3 20 12 23 63 4 70 11 81 59 90 30 5 50 14 91 41 2 1 -2
20 -9 43 -10 34 -9 44 5 66 9 14 25 25 35 25 24 0 45 57 37 98 -8 38 13 73 53
87 50 16 61 38 33 68 -12 13 -22 34 -22 46 0 39 30 88 61 101 33 14 37 39 14
80 -8 14 -14 42 -15 63 0 30 7 44 40 77 43 43 50 73 24 101 -9 10 -18 35 -21
57 -5 37 -3 40 27 51 29 9 32 14 28 41 -3 17 -1 33 4 36 17 10 8 63 -13 77
-20 15 -20 16 -3 42 13 21 15 31 7 44 -9 14 -7 20 9 30 26 16 20 55 -10 59
-29 4 -56 45 -47 72 4 11 17 28 31 36 28 19 32 57 8 76 -59 48 -64 56 -64 110
1 31 7 61 15 72 22 30 18 53 -10 60 -31 8 -65 60 -65 100 0 17 9 39 20 51 28
30 17 52 -32 67 -44 13 -58 36 -58 97 0 32 -7 46 -40 79 -42 41 -50 74 -29
113 13 26 -4 49 -37 49 -12 0 -26 5 -29 10 -3 6 -21 10 -38 10 -18 0 -43 7
-56 16 -21 15 -23 22 -17 69 7 61 0 71 -61 81 -55 8 -81 38 -89 100 -8 61 -18
74 -56 74 -65 0 -118 49 -118 111 0 47 -17 61 -67 53 -35 -5 -44 -2 -76 26
-21 18 -42 48 -48 71 -17 55 -32 65 -75 50 -48 -17 -98 10 -102 56 -5 46 -22
57 -70 42 -52 -15 -102 8 -143 67 -16 24 -34 44 -38 44 -5 0 -25 -7 -46 -16
l-37 -15 -37 40 c-41 45 -55 48 -96 27 -33 -17 -50 -12 -92 27 -32 30 -34 30
-84 19 -72 -17 -74 -16 -115 28 -21 22 -44 40 -52 40 -8 0 -28 -12 -45 -26
-27 -22 -38 -25 -80 -21 -34 3 -56 12 -76 31 -34 33 -50 33 -82 0z m325 -439
c202 -37 437 -127 611 -235 387 -238 683 -642 795 -1085 55 -216 63 -441 25
-723 -74 -560 -582 -1132 -1182 -1332 -215 -71 -298 -84 -553 -84 -195 -1
-240 2 -336 22 -293 59 -561 185 -788 371 -104 85 -261 253 -339 361 -80 113
-194 338 -236 467 -71 217 -102 471 -83 679 17 184 20 199 49 299 195 674 790
1175 1513 1275 99 13 420 5 524 -15z"/>
<path d="M5330 5322 l0 -389 66 -12 c36 -6 117 -15 180 -18 l114 -6 0 231 0
232 370 0 370 0 0 175 0 175 -550 0 -550 0 0 -388z"/>
<path d="M6590 4722 l0 -410 23 -6 c12 -3 93 -9 180 -12 l157 -7 0 241 0 242
138 0 c148 -1 189 -10 246 -54 53 -40 79 -105 84 -209 8 -152 -32 -228 -134
-258 -71 -20 -523 -17 -704 5 -106 13 -216 17 -512 16 l-378 -1 0 131 0 130
107 0 c138 0 436 20 446 29 4 5 3 77 -4 160 l-13 152 -125 -8 c-69 -4 -232 -8
-361 -7 -284 1 -356 12 -598 85 -9 3 -31 -40 -68 -136 -29 -77 -52 -145 -50
-150 5 -13 156 -61 243 -78 l63 -12 0 -327 0 -328 563 -1 c309 -1 591 -4 627
-8 l65 -6 3 -272 2 -273 180 0 180 0 0 260 c0 201 3 260 13 260 127 3 366 23
410 35 98 26 168 65 240 136 113 113 161 243 161 444 0 136 -15 205 -71 324
-44 93 -160 214 -244 255 -116 56 -137 58 -516 63 l-353 5 0 -410z"/>
<path d="M8310 6549 c-107 -95 -212 -187 -233 -206 l-38 -34 37 -46 c69 -84
139 -150 184 -173 62 -32 178 -39 249 -15 69 23 151 99 182 167 34 77 33 184
-3 258 -22 47 -154 210 -176 217 -4 2 -95 -74 -202 -168z m223 -44 c59 -74 72
-147 37 -214 -41 -81 -127 -123 -209 -102 -48 13 -76 32 -116 79 l-26 31 43
39 c103 93 230 202 236 202 4 0 20 -16 35 -35z"/>
<path d="M3856 6154 c-14 -26 -26 -50 -26 -54 0 -4 68 -45 152 -91 l152 -84
-204 -3 -205 -3 -31 -58 -32 -57 270 -150 c149 -82 273 -150 277 -152 8 -3 68
105 61 111 -3 2 -74 42 -158 88 l-152 84 209 3 209 2 28 55 c16 29 26 56 23
59 -10 11 -530 296 -539 296 -4 0 -20 -21 -34 -46z"/>
<path d="M8828 5766 c-175 -12 -320 -25 -323 -28 -3 -3 4 -31 17 -63 l23 -57
92 7 91 6 7 -33 c4 -18 18 -56 30 -85 l23 -52 -59 -56 c-32 -31 -59 -59 -59
-63 0 -13 45 -112 51 -112 3 0 34 26 69 57 l63 57 17 -22 18 -22 48 21 c27 11
50 22 52 24 3 2 -12 26 -32 53 -41 57 -92 162 -102 210 l-6 32 50 0 c28 0 59
3 69 6 10 4 -3 -15 -29 -42 l-47 -49 27 -50 c15 -27 32 -50 39 -50 6 0 65 51
131 113 l121 112 -23 52 c-13 29 -27 53 -32 54 -5 1 -152 -8 -326 -20z"/>
<path d="M3834 5267 c-1 -78 -29 -237 -41 -237 -3 0 -31 14 -61 32 -61 35 -60
38 29 52 39 7 49 27 49 103 0 32 -2 34 -27 29 -16 -3 -91 -15 -168 -26 -77
-11 -143 -24 -147 -28 -4 -4 -10 -30 -14 -58 l-6 -52 213 -127 c118 -70 246
-147 286 -171 l72 -43 14 62 c7 34 12 65 10 69 -2 3 -37 26 -78 50 -55 31 -73
47 -68 58 3 8 14 46 25 84 10 38 19 71 21 72 1 2 38 9 82 16 l79 13 12 55 c7
30 13 59 14 64 0 8 -89 2 -152 -11 -26 -5 -28 -3 -28 25 0 32 4 30 -87 47
l-28 5 -1 -83z"/>
<path d="M9065 5043 c-165 -19 -301 -36 -301 -37 -1 0 8 -89 20 -196 l22 -195
59 3 c32 1 61 4 63 7 3 2 -2 63 -10 136 -10 90 -11 132 -4 134 10 3 472 55
488 55 6 0 2 61 -8 108 -2 12 -10 21 -17 21 -6 -1 -147 -17 -312 -36z"/>
<path d="M3671 4480 c-81 -17 -173 -86 -211 -160 -37 -73 -43 -116 -30 -244 7
-67 16 -124 19 -128 4 -4 94 3 201 16 107 14 246 30 308 36 130 15 121 -1 98
163 -16 114 -49 190 -103 238 -75 66 -189 97 -282 79z m170 -155 c46 -30 75
-83 84 -152 l7 -49 -183 -21 c-101 -12 -186 -19 -188 -17 -10 10 -12 104 -2
139 13 48 64 104 112 122 49 18 125 9 170 -22z"/>
<path d="M8807 4373 c-3 -5 -8 -33 -12 -64 l-7 -57 76 -43 c42 -24 74 -48 72
-54 -2 -5 -13 -45 -22 -87 l-19 -77 -61 -10 c-33 -6 -68 -11 -78 -11 -9 0 -20
-10 -25 -22 -9 -25 -24 -118 -19 -118 2 0 41 7 88 15 47 8 86 15 88 15 1 0 2
-13 2 -29 0 -25 4 -30 38 -36 20 -3 46 -9 57 -11 19 -5 20 0 20 88 0 92 20
214 37 224 4 3 34 -10 66 -28 l57 -33 -55 -10 c-77 -14 -80 -18 -80 -84 l0
-57 168 27 c92 16 168 28 169 29 4 0 25 112 21 114 -12 10 -566 326 -571 326
-3 0 -8 -3 -10 -7z"/>
<path d="M3945 3716 c-53 -18 -367 -156 -380 -167 -6 -6 1 -29 17 -63 l27 -54
183 81 c144 63 193 81 232 81 46 1 52 -2 73 -33 28 -41 31 -101 6 -123 -25
-22 -79 -48 -255 -124 -84 -36 -154 -67 -156 -69 -2 -1 9 -28 23 -60 15 -36
30 -55 37 -52 138 55 395 177 422 199 99 81 101 223 5 332 -57 64 -139 83
-234 52z"/>
<path d="M8594 3569 c-21 -42 -23 -53 -12 -60 7 -5 79 -44 161 -87 l147 -77
-209 -3 -208 -2 -32 -59 -31 -59 62 -35 c230 -126 491 -258 497 -251 5 5 20
29 34 54 l26 46 -159 84 -160 85 143 6 c78 4 171 7 207 8 l66 1 27 56 c16 31
27 58 25 59 -13 10 -540 285 -548 285 -5 0 -21 -23 -36 -51z"/>
<path d="M4364 2879 l-188 -161 -30 33 c-16 19 -44 51 -63 72 l-34 38 -45 -36
c-24 -20 -44 -40 -44 -45 0 -5 73 -93 161 -197 89 -103 162 -189 163 -190 1
-1 23 17 50 41 l49 42 -63 72 c-34 40 -61 74 -59 76 8 6 364 309 373 317 8 7
-61 99 -75 99 -4 0 -92 -73 -195 -161z"/>
<path d="M8097 2862 c-20 -21 -37 -42 -37 -48 0 -5 79 -88 175 -184 l175 -175
-67 -67 -67 -68 44 -45 44 -45 178 177 c98 98 178 183 178 188 0 6 -18 29 -40
50 l-40 39 -70 -69 -70 -70 -178 178 c-97 97 -180 177 -183 177 -3 0 -22 -17
-42 -38z"/>
<path d="M4925 2551 c-40 -24 -61 -49 -80 -94 -33 -80 -13 -133 86 -229 63
-61 74 -92 41 -121 -54 -49 -172 19 -172 99 l0 34 -66 0 -67 0 6 -49 c8 -63
36 -120 82 -159 60 -54 93 -66 171 -67 58 0 76 4 106 24 50 35 80 84 86 141 6
66 -21 120 -98 194 -33 32 -60 64 -60 71 0 55 63 62 129 15 31 -23 44 -41 53
-75 l12 -45 58 0 58 0 0 40 c0 51 -39 129 -82 165 -83 70 -200 95 -263 56z"/>
<path d="M7555 2455 c-93 -52 -174 -96 -180 -98 -7 -3 30 -88 50 -115 1 -1 56
27 122 63 66 36 125 65 131 65 6 0 20 -17 31 -38 l20 -38 -89 -49 -89 -48 25
-48 c13 -27 27 -49 30 -49 3 0 44 21 91 46 46 25 86 45 88 43 7 -8 75 -131 75
-137 0 -4 -44 -30 -98 -59 -147 -79 -141 -71 -107 -129 15 -27 29 -51 31 -52
5 -6 344 182 344 191 0 11 -294 547 -300 547 -3 -1 -81 -43 -175 -95z"/>
<path d="M5531 2255 c-7 -30 -11 -58 -10 -62 1 -5 54 -22 118 -39 162 -42 151
-35 138 -84 -13 -47 -3 -46 -137 -16 -36 8 -68 12 -71 8 -4 -4 -10 -31 -14
-59 -7 -51 -6 -53 17 -53 48 0 225 -52 285 -85 l63 -33 30 41 c16 23 30 44 30
49 0 4 -20 19 -45 34 -25 14 -45 30 -45 36 0 5 12 54 27 109 14 54 24 101 22
103 -4 4 -380 106 -391 106 -3 0 -10 -25 -17 -55z"/>
<path d="M6927 2220 c-160 -40 -225 -169 -148 -293 32 -52 73 -67 183 -67 107
0 138 -13 138 -59 0 -69 -112 -106 -180 -59 l-35 25 -48 -40 c-47 -38 -47 -40
-30 -59 10 -11 38 -32 63 -47 38 -22 57 -26 120 -26 64 0 83 4 127 29 69 38
105 91 111 161 6 76 -24 136 -86 172 -41 24 -57 28 -144 29 -104 1 -131 12
-126 47 10 64 139 86 210 35 14 -10 24 -5 61 29 l45 41 -27 25 c-58 55 -151
77 -234 57z"/>
<path d="M5719 1857 c-27 -106 -32 -117 -48 -112 -9 2 -66 18 -127 34 l-112
29 -17 -60 c-9 -33 -15 -61 -13 -62 11 -9 370 -98 375 -93 5 6 72 243 73 259
0 3 -27 15 -60 26 l-60 21 -11 -42z"/>
</g>
</svg>
