<svg xmlns="http://www.w3.org/2000/svg" viewBox="0 0 184.82 184.82"><defs><style>.cls-1,.cls-2{fill:#fff;}.cls-2{font-size:80px;font-family:ComicSansMS, Comic Sans MS;}</style></defs><title>logo-corrente-ep</title><g id="Layer_2" data-name="Layer 2"><g id="OBJECTS"><path class="cls-1" d="M184.49,105.77a12.76,12.76,0,0,0-2.11-4.62,11.45,11.45,0,0,0-8.26-4.59,14.73,14.73,0,0,0-9.6,2.64,11.49,11.49,0,0,0-5,7.14c-.71,3.16.29,6.42,2.26,9.28a4,4,0,0,1,.53,3.89c-.42,1.06-.81,2.14-1.31,3.17a4.07,4.07,0,0,1-3.13,2.38,14.2,14.2,0,0,0-4.72,1.68,10,10,0,0,0-1.9,1.44A8.84,8.84,0,0,0,149.7,130a10.18,10.18,0,0,0-1.56,4.07,12.36,12.36,0,0,0,.07,4.53,14.63,14.63,0,0,0,4.91,8.64,11.47,11.47,0,0,0,9.1,2.6,13.53,13.53,0,0,0,4.76-1.77,14,14,0,0,0,3.9-3.76,16.47,16.47,0,0,0,1.57-2.95,14,14,0,0,0,.75-3.1,11.85,11.85,0,0,0-.72-5.88,6.08,6.08,0,0,1,.12-4.59c.57-1.21,1-2.47,1.53-3.71a6.11,6.11,0,0,1,3.17-3.32,12.9,12.9,0,0,0,7.32-9.57A13.91,13.91,0,0,0,184.49,105.77Zm-18.82,34.75a6.1,6.1,0,0,1-8.9,1.56,6.2,6.2,0,0,1,6.82-10.35A6.1,6.1,0,0,1,165.67,140.52Zm12.58-30.32a6.45,6.45,0,0,1-2.88,4.13,6.06,6.06,0,0,1-4.83.6,6.77,6.77,0,0,1-3.84-2.88,5.8,5.8,0,0,1-.86-4.41,5.73,5.73,0,0,1,2.54-3.7,6.72,6.72,0,0,1,4.66-1.13,6.06,6.06,0,0,1,4.2,2.46A6.54,6.54,0,0,1,178.25,110.2Z"/><path class="cls-1" d="M174.18,94.25a11.51,11.51,0,0,1,4.54,1.21l.08-3-.07-3a12.07,12.07,0,0,1-5.55,1.22,14,14,0,0,1-4.6-.88l.07,2.69-.07,2.68A14,14,0,0,1,174.18,94.25Z"/><path class="cls-1" d="M148.18,144.37l-1.86,1.95-1.94,1.85a13.9,13.9,0,0,1,4.55,3.36,11.54,11.54,0,0,1,2.36,4.07l2.21-2.1,2.09-2.2a12,12,0,0,1-4.78-3.06A13.89,13.89,0,0,1,148.18,144.37Z"/><path class="cls-1" d="M138.61,148.21a12.36,12.36,0,0,0-4.53-.07A10.18,10.18,0,0,0,130,149.7a8.84,8.84,0,0,0-1.83,1.56,10,10,0,0,0-1.44,1.9,14.2,14.2,0,0,0-1.68,4.72,4.07,4.07,0,0,1-2.38,3.13c-1,.5-2.11.89-3.17,1.31a4,4,0,0,1-3.89-.53c-2.86-2-6.12-3-9.28-2.26a11.49,11.49,0,0,0-7.14,5,14.73,14.73,0,0,0-2.64,9.6,11.45,11.45,0,0,0,4.59,8.26,12.76,12.76,0,0,0,4.62,2.11,13.91,13.91,0,0,0,5.43.13,12.9,12.9,0,0,0,9.57-7.32,6.11,6.11,0,0,1,3.32-3.17c1.24-.49,2.5-1,3.71-1.53a6.08,6.08,0,0,1,4.59-.12,11.85,11.85,0,0,0,5.88.72,13.87,13.87,0,0,0,3.1-.75,16.47,16.47,0,0,0,2.95-1.57,14,14,0,0,0,3.76-3.9,13.53,13.53,0,0,0,1.77-4.76,11.47,11.47,0,0,0-2.6-9.1A14.63,14.63,0,0,0,138.61,148.21Zm-24.28,27.16a6.45,6.45,0,0,1-4.13,2.88,6.54,6.54,0,0,1-4.93-1,6.06,6.06,0,0,1-2.46-4.2,6.72,6.72,0,0,1,1.13-4.66,5.73,5.73,0,0,1,3.7-2.54,5.8,5.8,0,0,1,4.41.86,6.77,6.77,0,0,1,2.88,3.84A6.06,6.06,0,0,1,114.33,175.37Zm26.19-9.7a6.1,6.1,0,0,1-8.79-2.08,6.2,6.2,0,0,1,10.35-6.82A6.1,6.1,0,0,1,140.52,165.67Z"/><path class="cls-1" d="M95.11,168.58l-2.7.07-2.68-.07a14.17,14.17,0,0,1,.85,5.6,11.68,11.68,0,0,1-1.21,4.54l3,.08,3-.08a12.13,12.13,0,0,1-1.22-5.54A14,14,0,0,1,95.11,168.58Z"/><path class="cls-1" d="M78.48,159.53a11.83,11.83,0,0,0-9.27,2.26,4,4,0,0,1-3.89.53c-1.07-.42-2.14-.81-3.18-1.31a4.06,4.06,0,0,1-2.37-3.13,14,14,0,0,0-1.69-4.72,10,10,0,0,0-1.44-1.9,8.59,8.59,0,0,0-1.83-1.56,10.12,10.12,0,0,0-4.07-1.56,12.36,12.36,0,0,0-4.53.07,14.63,14.63,0,0,0-8.64,4.91,11.5,11.5,0,0,0-2.59,9.1A13.51,13.51,0,0,0,36.74,167a14,14,0,0,0,3.76,3.9,16.55,16.55,0,0,0,3,1.57,13.92,13.92,0,0,0,3.09.75,11.82,11.82,0,0,0,5.88-.72,6.08,6.08,0,0,1,4.59.12c1.21.57,2.47,1,3.71,1.53a6.12,6.12,0,0,1,3.33,3.17,12.86,12.86,0,0,0,9.57,7.32,13.91,13.91,0,0,0,5.43-.13,12.79,12.79,0,0,0,4.61-2.11,11.45,11.45,0,0,0,4.59-8.26,14.73,14.73,0,0,0-2.64-9.6A11.49,11.49,0,0,0,78.48,159.53Zm-25.39,4.06a6.2,6.2,0,1,1-10.34-6.82,6.19,6.19,0,0,1,10.34,6.82ZM82,173a6.08,6.08,0,0,1-2.47,4.2,6.53,6.53,0,0,1-4.93,1,6.4,6.4,0,0,1-4.12-2.88,6.06,6.06,0,0,1-.61-4.83,6.78,6.78,0,0,1,2.89-3.84,5.8,5.8,0,0,1,8.1,1.68A6.73,6.73,0,0,1,82,173Z"/><path class="cls-1" d="M40.45,148.18l-2-1.86-1.84-1.94a14.18,14.18,0,0,1-3.36,4.55,11.5,11.5,0,0,1-4.08,2.36l2.11,2.21,2.19,2.09a12,12,0,0,1,3.06-4.78A13.89,13.89,0,0,1,40.45,148.18Z"/><path class="cls-1" d="M36.62,138.61a12.35,12.35,0,0,0,.06-4.53A10,10,0,0,0,35.12,130a8.55,8.55,0,0,0-1.56-1.83,10,10,0,0,0-1.9-1.44,14.12,14.12,0,0,0-4.72-1.68,4.05,4.05,0,0,1-3.12-2.38c-.5-1-.89-2.11-1.32-3.17a4,4,0,0,1,.53-3.89,11.87,11.87,0,0,0,2.27-9.28,11.54,11.54,0,0,0-5-7.14,14.71,14.71,0,0,0-9.6-2.64,11.45,11.45,0,0,0-8.26,4.59,12.93,12.93,0,0,0-2.11,4.62A14.1,14.1,0,0,0,.2,111.2a12.92,12.92,0,0,0,7.32,9.57,6.07,6.07,0,0,1,3.17,3.32c.5,1.24,1,2.5,1.54,3.71a6.08,6.08,0,0,1,.11,4.59,11.84,11.84,0,0,0-.71,5.88,13.34,13.34,0,0,0,.75,3.1,15.8,15.8,0,0,0,1.56,2.95,14.08,14.08,0,0,0,3.91,3.76,13.46,13.46,0,0,0,4.76,1.77,11.49,11.49,0,0,0,9.1-2.6A14.68,14.68,0,0,0,36.62,138.61ZM14.28,114.93a6,6,0,0,1-4.82-.6,6.39,6.39,0,0,1-1.88-9.06,6.11,6.11,0,0,1,4.2-2.46,6.7,6.7,0,0,1,4.66,1.13,5.81,5.81,0,0,1,1.68,8.11A6.77,6.77,0,0,1,14.28,114.93Zm13.77,27.15a6.21,6.21,0,1,1-6.81-10.35,6.5,6.5,0,0,1,8.5,1.82A6.5,6.5,0,0,1,28.05,142.08Z"/><path class="cls-1" d="M2.44,83.67a11.45,11.45,0,0,0,8.26,4.59,14.71,14.71,0,0,0,9.6-2.64,11.54,11.54,0,0,0,5-7.14A11.84,11.84,0,0,0,23,69.21a4,4,0,0,1-.53-3.89c.43-1.07.82-2.14,1.32-3.18a4,4,0,0,1,3.12-2.37,13.92,13.92,0,0,0,4.72-1.69,10,10,0,0,0,1.9-1.44,8.31,8.31,0,0,0,1.56-1.83,10,10,0,0,0,1.56-4.07,12.36,12.36,0,0,0-.06-4.53,14.71,14.71,0,0,0-4.91-8.64A11.52,11.52,0,0,0,22.61,35a13.37,13.37,0,0,0-4.76,1.76,14.08,14.08,0,0,0-3.91,3.76,15.88,15.88,0,0,0-1.56,3,13.38,13.38,0,0,0-.75,3.09,11.82,11.82,0,0,0,.71,5.88A6.08,6.08,0,0,1,12.23,57c-.58,1.21-1,2.47-1.54,3.71a6.09,6.09,0,0,1-3.17,3.33A12.89,12.89,0,0,0,.2,73.63a14.11,14.11,0,0,0,.13,5.43A13,13,0,0,0,2.44,83.67ZM19.16,44.31a6.08,6.08,0,0,1,8.89-1.56,6.49,6.49,0,0,1,1.69,8.52,6.48,6.48,0,0,1-8.5,1.82A6.08,6.08,0,0,1,19.16,44.31ZM6.58,74.62A6.4,6.4,0,0,1,9.46,70.5a6,6,0,0,1,4.82-.61,6.78,6.78,0,0,1,3.84,2.89,5.73,5.73,0,0,1,.86,4.4,5.67,5.67,0,0,1-2.54,3.7A6.7,6.7,0,0,1,11.78,82a6.12,6.12,0,0,1-4.2-2.47A6.49,6.49,0,0,1,6.58,74.62Z"/><path class="cls-1" d="M10.65,90.58A11.73,11.73,0,0,1,6.1,89.37l-.08,3,.08,3a12,12,0,0,1,5.55-1.21,13.71,13.71,0,0,1,4.59.88l-.06-2.7.06-2.68A14.12,14.12,0,0,1,10.65,90.58Z"/><path class="cls-1" d="M36.65,40.45l1.85-2,1.94-1.84a14.29,14.29,0,0,1-4.55-3.36,11.81,11.81,0,0,1-2.36-4.08l-2.2,2.11-2.1,2.19A12.12,12.12,0,0,1,34,36.58,14.11,14.11,0,0,1,36.65,40.45Z"/><path class="cls-1" d="M83.67,2.44A13,13,0,0,0,79.06.33,14.11,14.11,0,0,0,73.63.2a12.88,12.88,0,0,0-9.57,7.33,6.07,6.07,0,0,1-3.33,3.16c-1.24.5-2.5,1-3.71,1.54a6.08,6.08,0,0,1-4.59.11,11.82,11.82,0,0,0-5.88-.71,13.26,13.26,0,0,0-3.09.75,15.88,15.88,0,0,0-3,1.56,14.08,14.08,0,0,0-3.76,3.91A13.37,13.37,0,0,0,35,22.61a11.51,11.51,0,0,0,2.59,9.1,14.68,14.68,0,0,0,8.64,4.91,12.36,12.36,0,0,0,4.53.06,10.1,10.1,0,0,0,4.07-1.55,8.63,8.63,0,0,0,1.83-1.57,10,10,0,0,0,1.44-1.9,13.92,13.92,0,0,0,1.69-4.72,4,4,0,0,1,2.37-3.12c1-.5,2.11-.89,3.18-1.32a4,4,0,0,1,3.89.53,11.84,11.84,0,0,0,9.27,2.27,11.54,11.54,0,0,0,7.14-5,14.71,14.71,0,0,0,2.64-9.6A11.45,11.45,0,0,0,83.67,2.44Zm-32.4,27.3a6.49,6.49,0,0,1-8.52-1.69,6.2,6.2,0,1,1,10.34-6.81A6.48,6.48,0,0,1,51.27,29.74Zm29.61-13.3a5.8,5.8,0,0,1-8.1,1.68,6.78,6.78,0,0,1-2.89-3.84,6,6,0,0,1,.61-4.82,6.4,6.4,0,0,1,4.12-2.88,6.49,6.49,0,0,1,4.93,1A6.12,6.12,0,0,1,82,11.78,6.7,6.7,0,0,1,80.88,16.44Z"/><path class="cls-1" d="M89.38,6.1a12,12,0,0,1,1.22,5.55,14,14,0,0,1-.88,4.59l2.69-.06,2.68.06a13.94,13.94,0,0,1-.84-5.59A11.56,11.56,0,0,1,95.46,6.1l-3-.08Z"/><path class="cls-1" d="M106.34,25.3A11.87,11.87,0,0,0,115.62,23a4,4,0,0,1,3.89-.53c1.06.43,2.14.82,3.17,1.32a4.05,4.05,0,0,1,2.38,3.12,14.12,14.12,0,0,0,1.68,4.72,10,10,0,0,0,1.44,1.9A8.89,8.89,0,0,0,130,35.13a10.16,10.16,0,0,0,4.07,1.55,12.35,12.35,0,0,0,4.53-.06,14.68,14.68,0,0,0,8.64-4.91,11.49,11.49,0,0,0,2.6-9.1,13.39,13.39,0,0,0-1.77-4.76,14.08,14.08,0,0,0-3.76-3.91,15.57,15.57,0,0,0-3-1.56,13.14,13.14,0,0,0-3.09-.75,11.84,11.84,0,0,0-5.88.71,6.08,6.08,0,0,1-4.59-.11c-1.21-.58-2.47-1-3.71-1.54a6.05,6.05,0,0,1-3.32-3.16A12.91,12.91,0,0,0,111.2.2a14.1,14.1,0,0,0-5.43.13,12.93,12.93,0,0,0-4.62,2.11,11.45,11.45,0,0,0-4.59,8.26,14.71,14.71,0,0,0,2.64,9.6A11.54,11.54,0,0,0,106.34,25.3Zm25.39-4.06a6.21,6.21,0,1,1,10.35,6.81,6.5,6.5,0,0,1-8.53,1.69A6.5,6.5,0,0,1,131.73,21.24Zm-28.92-9.46a6.11,6.11,0,0,1,2.46-4.2,6.39,6.39,0,0,1,9.06,1.88,6,6,0,0,1,.6,4.82,6.77,6.77,0,0,1-2.88,3.84,5.81,5.81,0,0,1-8.11-1.68A6.7,6.7,0,0,1,102.81,11.78Z"/><path class="cls-1" d="M144.37,36.65l1.95,1.85,1.85,1.94a14,14,0,0,1,3.36-4.55,11.86,11.86,0,0,1,4.07-2.36l-2.1-2.2-2.2-2.1A12,12,0,0,1,148.24,34,14.11,14.11,0,0,1,144.37,36.65Z"/><path class="cls-1" d="M148.21,46.21a12.36,12.36,0,0,0-.07,4.53,10.12,10.12,0,0,0,1.56,4.07,8.59,8.59,0,0,0,1.56,1.83,10,10,0,0,0,1.9,1.44,14,14,0,0,0,4.72,1.69A4.06,4.06,0,0,1,161,62.14c.5,1,.89,2.11,1.31,3.18a4,4,0,0,1-.53,3.89,11.83,11.83,0,0,0-2.26,9.27,11.49,11.49,0,0,0,5,7.14,14.73,14.73,0,0,0,9.6,2.64,11.45,11.45,0,0,0,8.26-4.59,12.79,12.79,0,0,0,2.11-4.61,13.91,13.91,0,0,0,.13-5.43,12.86,12.86,0,0,0-7.32-9.57,6.12,6.12,0,0,1-3.17-3.33c-.49-1.24-1-2.5-1.53-3.71a6.08,6.08,0,0,1-.12-4.59,11.82,11.82,0,0,0,.72-5.88,13.92,13.92,0,0,0-.75-3.09,16.55,16.55,0,0,0-1.57-3,14,14,0,0,0-3.9-3.76A13.51,13.51,0,0,0,162.22,35a11.5,11.5,0,0,0-9.1,2.59A14.66,14.66,0,0,0,148.21,46.21Zm22.33,23.68a6.06,6.06,0,0,1,4.83.61,6.4,6.4,0,0,1,2.88,4.12,6.53,6.53,0,0,1-1,4.93A6.08,6.08,0,0,1,173,82a6.73,6.73,0,0,1-4.66-1.14,5.8,5.8,0,0,1-1.68-8.1A6.78,6.78,0,0,1,170.54,69.89ZM156.77,42.75a6.2,6.2,0,1,1,6.82,10.34,6.5,6.5,0,0,1-8.51-1.82A6.5,6.5,0,0,1,156.77,42.75Z"/><text/><text/><text class="cls-2" transform="translate(45.61 115.59)">E</text><text class="cls-2" transform="translate(103.36 133.71)">P</text><path class="cls-1" d="M58.63,42h63.18c.79,0,1.43-.38,1.43-.84s-.64-.85-1.43-.85H58.63c-.79,0-1.43.38-1.43.85S57.84,42,58.63,42Z"/><path class="cls-1" d="M69.43,36.8H111c.79,0,1.43-.38,1.43-.85s-.64-.85-1.43-.85H69.43c-.79,0-1.42.38-1.42.85S68.64,36.8,69.43,36.8Z"/><path class="cls-1" d="M80.05,31.55h20.34c.79,0,1.43-.38,1.43-.85s-.64-.84-1.43-.84H80.05c-.79,0-1.43.38-1.43.84S79.26,31.55,80.05,31.55Z"/><path class="cls-1" d="M121.81,143.42H58.63c-.79,0-1.43.38-1.43.84s.64.85,1.43.85h63.18c.79,0,1.43-.38,1.43-.85S122.6,143.42,121.81,143.42Z"/><path class="cls-1" d="M111,148.66H69.43c-.79,0-1.42.38-1.42.85s.63.85,1.42.85H111c.79,0,1.43-.38,1.43-.85S111.8,148.66,111,148.66Z"/><path class="cls-1" d="M100.39,153.91H80.05c-.79,0-1.43.38-1.43.84s.64.85,1.43.85h20.34c.79,0,1.43-.38,1.43-.85S101.18,153.91,100.39,153.91Z"/></g></g></svg>