<svg xmlns="http://www.w3.org/2000/svg" viewBox="0 0 410.6 205.69"><defs><style>.cls-1{fill:none;stroke:#c3f393;stroke-linecap:round;stroke-miterlimit:10;}.cls-2{fill:#c3f393;}.cls-3{fill:#7dcc47;}.cls-4{fill:#7d9c47;}.cls-5{fill:#fff;}.cls-6{fill:#f4e370;}</style></defs><title>Asset 7</title><g id="Layer_2" data-name="Layer 2"><g id="OBJECTS"><path class="cls-1" d="M39.86,188.62c-6,2.58-13.58,4.36-23.76,5.23"/><path class="cls-1" d="M69.54,158.41l-3.44,4.77c-4.53,6.29-8.3,11.82-12.92,16.41"/><path class="cls-1" d="M141.43,109.85a137.61,137.61,0,0,0-26,8c-14.13,6.28-28.3,18.14-37.3,29.24"/><path class="cls-1" d="M378.84,15c3.7,1.52,7.44,3.14,11.26,4.85"/><path class="cls-1" d="M320.73,1a173.71,173.71,0,0,1,52.46,11.71"/><path class="cls-1" d="M290.6,2A92.56,92.56,0,0,1,308.77.52"/><path class="cls-1" d="M245.43,20.52a121.07,121.07,0,0,1,29-14.3"/><path class="cls-2" d="M410.6,40v165.3H55.77s-33.09.79-48.29.07c-.85,0-1.64-.09-2.37-.14l-.71-.05-.66-.06c-.43,0-.82-.07-1.18-.12a11.11,11.11,0,0,1-2-.36,1.18,1.18,0,0,1-.25-.1.49.49,0,0,1-.27-.18c-.06-.09,0-.17,0-.26.78-.82,7.55-2,24-3.8l3-.35,2.79-.37,2.85-.43,1.12-.18c1-.16,1.92-.33,2.84-.51l1.19-.23.26-.05,1.21-.25c1.17-.24,2.3-.5,3.39-.77l1.13-.28,1.11-.29,1.08-.3,1.28-.37c1-.28,1.9-.58,2.8-.89q2.44-.83,4.6-1.73c.57-.24,1.14-.48,1.68-.74l.82-.38c.8-.38,1.58-.77,2.32-1.17.5-.26,1-.53,1.45-.81s.94-.55,1.39-.83.89-.57,1.31-.86.84-.57,1.24-.88.8-.58,1.19-.89l.29-.23c.28-.23.56-.45.83-.69s.56-.47.83-.72l.24-.22A37.83,37.83,0,0,0,71.28,182c.3-.33.59-.67.87-1s.47-.56.69-.84L73,180c.27-.34.53-.69.79-1s.68-.95,1-1.43c.16-.23.31-.46.46-.69s.47-.72.69-1.08h0c7.38-11.86,10-25.92,25.5-38.06C132.1,113.65,168.08,124,190.1,99s49.34-86.66,116.67-86.66C359.84,12.32,397.16,31.77,410.6,40Z"/><path class="cls-3" d="M410.6,137.27v68H11.48l-4,.07c-.85,0-1.64-.09-2.37-.14l-.71-.05-.66-.06c-.43,0-.82-.08-1.18-.12a12.08,12.08,0,0,1-2-.36,1.18,1.18,0,0,1-.25-.1.66.66,0,0,1-.27-.18c-.06-.08,0-.17,0-.26.78-.82,7.55-2,24-3.8l3-.35,2.79-.37,2.85-.43,1.12-.18c1-.16,1.92-.33,2.84-.51l1.19-.23.26-.05,1.21-.25c1.17-.24,2.3-.5,3.39-.77l1.13-.28,1.11-.29,1.08-.3,1.28-.37c1-.29,1.9-.59,2.8-.89q2.44-.83,4.6-1.73c.57-.24,1.14-.49,1.68-.74l.82-.38c.8-.38,1.58-.77,2.32-1.17l1.45-.81c.48-.27.94-.55,1.39-.83l1.31-.86c.42-.29.84-.58,1.24-.88s.8-.59,1.19-.89l.29-.23.83-.69c.29-.24.56-.48.83-.72l.24-.22A39.7,39.7,0,0,0,71.28,182c.3-.33.59-.67.87-1l.69-.84L73,180l.79-1c.34-.47.68-.95,1-1.43l.46-.69.69-1.08h0c16.88-6.8,32.58-16.12,47.85-26,12.57-8.11,30.24-27,46.62-24.32,6.48,1.07,11.72,5.91,15.55,11.25,9.68,13.51,19,38,39.36,36.27,8.07-.68,14.53-6.72,20.18-12.52,17.4-17.87,33.47-36.94,50.41-55.22,12.1-13.06,28.76-31.14,48.65-24.7C366.08,87.48,390,114.45,410.6,137.27Z"/><path class="cls-4" d="M348.52,156.25c7.37-7.35,7.86-15.19-9.34-6.86-7.3,3.53-13.17,12.35-17.53,21.34a86.93,86.93,0,0,0,1.57-12.83c5.55-12.58,17.85-34.84,17.43-42.32-.49-8.82-13.27,2.45-19.66,20.58-.09.26-.18.54-.28.81-3.8-15.43-10.16-24.79-10.94-18.94-1,7.35,2.94,26.46,3.92,36.26.23,2.33.32,5.29.33,8.47-1.1,5.16-2,10.06-2.82,14.11-2.13-11.29-5.75-29.3-9.76-40.71-6.37-18.13-19.11-29.4-19.6-20.58s16.66,38.22,19.6,48,8.33,31.86,8.33,31.86-9.31-37.74-26.46-46.07-16.67-.49-9.32,6.86,28.43,34.3,30.39,37.25a45.66,45.66,0,0,1,3.43,6.37s-28.43-27-31.37-20.59,34.72,24.33,34.72,24.33l.06-.13,0,.13s37.77-18,34.82-24.33-31.46,20.59-31.46,20.59A46.32,46.32,0,0,1,318,193.5C320,190.55,341.14,163.6,348.52,156.25Z"/><path class="cls-2" d="M133.66,75.18a8,8,0,0,1-.23-1.85,7.88,7.88,0,0,1,7.88-7.88h.22a11.81,11.81,0,0,1,21.92-.9c.27,0,.53,0,.81,0a8.58,8.58,0,0,1,8.27,6.35,5.56,5.56,0,0,1,9.57,3.85c0,.16,0,.31,0,.46Z"/><path class="cls-5" d="M324.94,64.84a5.92,5.92,0,0,1,5.76-7.33h.17a8.89,8.89,0,0,1,16.51-.67,6.08,6.08,0,0,1,.61,0,6.45,6.45,0,0,1,6.23,4.78,4.19,4.19,0,0,1,7.21,2.9c0,.12,0,.23,0,.35Z"/><path class="cls-4" d="M380.46,133.17c-10.49-8.28,4.8-22.73,10.47-29,10.42-11.56,10.73-32.31,2.82-39s-17.4,8.11-22.15-.86,10-49-7.57-51.55-16.12,7.34-15.42,24S346.26,57,333,58.07s-19.3,25.67-10.52,43,15.3,23.49,1.46,26-16.3,21.4,1,36.7a103,103,0,0,0,33.55,19.51l.6-43-20.94-27.64,21.06,19.61.52-37.45L336.57,69.31l23.18,21.47.78-55.54,1,73.44,22.19-19.16L361.58,112.7l0,2.53,1.2,37.55,21.65-5.13-22.27,10.18.35,26c14.07-4.74,40-27.46,39-40.39C400.36,129.45,388.59,139.6,380.46,133.17Z"/><path class="cls-4" d="M108.37,182.06c-4.89-3.86,2.25-10.6,4.89-13.54,4.86-5.39,5-15.07,1.32-18.2s-8.12,3.78-10.34-.4,4.68-22.86-3.53-24.06-7.52,3.43-7.2,11.2-1.09,9.46-7.29,10-9,12-4.91,20.06,7.14,11,.68,12.12-7.61,10,.47,17.12a47.63,47.63,0,0,0,15.65,9.1l.28-20-9.77-12.9,9.82,9.15.25-17.47-10.8-11.9,10.82,10,.36-25.92.47,34.27,10.35-8.94L99.57,172.51v1.18l.56,17.52,10.1-2.39-10.39,4.75.17,12.12c6.56-2.21,18.67-12.81,18.18-18.84C117.66,180.33,112.17,185.06,108.37,182.06Z"/><path class="cls-6" d="M318.67,203.61c-8.91-3.85-18.67-12.08-23.24-16.44-14.66-14-8.66-25.33,0-21.33s17.34,24.66,24,25.33-18.66-34.67-17.33-47.33,16.67-10.67,23.33,4.66,2.67,43.34,4.67,44,4.67-18.66,7.33-33.33,24.67-8,18.67,14c-2.89,10.58-9.45,19.59-17.91,26.43-2.22,1.8-5.38,4.81-8.16,5.67C326.85,206.26,322.85,205.42,318.67,203.61Z"/><path class="cls-6" d="M54.72,204.86a37.08,37.08,0,0,1-9.29-6.57c-5.86-5.6-3.46-10.13,0-8.53s6.93,9.86,9.6,10.13S47.56,186,48.1,181s6.66-4.26,9.33,1.87,1.06,17.32,1.86,17.59,1.87-7.46,2.93-13.33,9.87-3.2,7.47,5.6a20.82,20.82,0,0,1-7.16,10.57,12.18,12.18,0,0,1-3.27,2.26A6.82,6.82,0,0,1,54.72,204.86Z"/><path class="cls-6" d="M186.46,204.86a37.08,37.08,0,0,1-9.29-6.57c-5.86-5.6-3.46-10.13,0-8.53s6.93,9.86,9.6,10.13S179.3,186,179.84,181s6.66-4.26,9.33,1.87,1.06,17.32,1.86,17.59S192.9,193,194,187.09s9.87-3.2,7.47,5.6a20.82,20.82,0,0,1-7.16,10.57,12.18,12.18,0,0,1-3.27,2.26A6.82,6.82,0,0,1,186.46,204.86Z"/><path class="cls-6" d="M206.42,205.16a21.77,21.77,0,0,0,5.43-4.18c3.43-3.56,2-6.44,0-5.42s-4,6.27-5.61,6.44,4.36-8.82,4-12-3.89-2.71-5.45,1.19-.62,11-1.09,11.19-1.09-4.75-1.71-8.48-5.76-2-4.36,3.56a13.37,13.37,0,0,0,4.18,6.72,7.12,7.12,0,0,0,1.91,1.44A3.65,3.65,0,0,0,206.42,205.16Z"/><path class="cls-5" d="M270.43,39.85a11.29,11.29,0,0,1,11-14l.32,0a17,17,0,0,1,31.52-1.3c.39,0,.77-.05,1.16-.05a12.32,12.32,0,0,1,11.9,9.13,8,8,0,0,1,13.77,5.53c0,.23,0,.45,0,.67Z"/></g></g></svg>