<svg xmlns="http://www.w3.org/2000/svg" viewBox="0 0 166.77 189.57"><defs><style>.cls-1{fill:#0c0942;}.cls-2{fill:#373463;}.cls-3{fill:#f0e0d3;}.cls-4{fill:none;stroke:#fff;stroke-linecap:round;stroke-miterlimit:10;}.cls-5{fill:#fd9f24;}.cls-6{fill:#1d9c5c;}.cls-7{fill:#fda37f;}.cls-8{fill:#cc7151;}.cls-9{fill:#1dca5c;}.cls-10{fill:#fd8324;}</style></defs><title>Asset 6</title><g id="Layer_2" data-name="Layer 2"><g id="OBJECTS"><path class="cls-1" d="M105.32,81.2s-28.44,21-29.18,25.48,4.43,38,4.43,38L85,146.21s2.41-29.92,4.81-35.65,26.22-19.21,26.78-26S111.23,77.69,105.32,81.2Z"/><circle class="cls-2" cx="32.26" cy="157.3" r="32.26"/><circle class="cls-3" cx="32.26" cy="157.3" r="28.64"/><path class="cls-4" d="M51.76,163.9a20.59,20.59,0,0,0-28.48-25.12"/><path class="cls-4" d="M15.19,145.8a20.59,20.59,0,0,0,26.37,29.87"/><circle class="cls-2" cx="134.51" cy="157.3" r="32.26"/><circle class="cls-3" cx="134.51" cy="157.3" r="28.64"/><path class="cls-4" d="M130.21,177.49a20.59,20.59,0,0,0,24.46-22.81,20.38,20.38,0,0,0-3.19-8.65"/><path class="cls-4" d="M143.5,138.91a20.59,20.59,0,0,0-26.27,30"/><path class="cls-5" d="M57.53,94.7A2.58,2.58,0,1,0,55,97.28,2.58,2.58,0,0,0,57.53,94.7Z"/><path class="cls-5" d="M55,95.81a1.11,1.11,0,0,1-1-.56l-5.22-9.13A1.11,1.11,0,0,1,50.7,85l5.22,9.13a1.12,1.12,0,0,1-.42,1.52A1.18,1.18,0,0,1,55,95.81Z"/><path class="cls-6" d="M51.21,86.37l.66.11c1.11.18,3.23.42,3.4-.27a4.14,4.14,0,0,1,2.33-2.57,1.61,1.61,0,0,1,.86-.09,5,5,0,0,0,3.63-.68L93.32,61.46l-4.67-7.7L54.8,81.54"/><path class="cls-7" d="M55.82,78.8s-7.38,3-8.49,3.32-2,0-1.66,2.4,1.29,4.62,2.58,4.62a2.41,2.41,0,0,0,2.22-1.85c0-.55.18-2,.74-.92s-.37,2,1.29,1.29.55-2.22,2.22-3.69a43.89,43.89,0,0,1,3.5-2.77Z"/><circle class="cls-2" cx="49.76" cy="85.31" r="2.58"/><path class="cls-2" d="M119.91,87.66a23.12,23.12,0,0,1-7.39,2c-4.06.37-6.83-.18-5.91,2.77s7.21,3.51,11.82,2.4,6.84-2.77,6.28-5.72S121.39,87.11,119.91,87.66Z"/><path class="cls-1" d="M80.57,144.73a22.89,22.89,0,0,1-4.25.74c-2.4.18-5.72-1.11-5.72-.19s4.06,4.44,6.09,4.62,4.62.37,4.62.37l.1,1.44,2.67.78.92-6.28Z"/><rect class="cls-8" x="71.52" y="149.35" width="9.79" height="2.77" transform="translate(76.33 -18.26) rotate(26.85)"/><polygon class="cls-5" points="76.42 150.73 87.59 158.4 88.68 155.69 76.69 149.9 76.42 150.73"/><path class="cls-5" d="M135,155.46,112.45,98.89a1,1,0,0,0-.27-.39l1.19-3.14a1.11,1.11,0,1,0-2.07-.79l-2.59,6.85H54.56c1-4,1.46-6.4,1.48-6.5a1.11,1.11,0,0,0-2.17-.44c-.08.38-7.7,37.66-22.56,62.25a1.11,1.11,0,0,0,.38,1.52,1.07,1.07,0,0,0,.57.16,1.11,1.11,0,0,0,1-.53c7.88-13,13.75-29.59,17.56-42.44l36.75,43.49a1.67,1.67,0,0,0,.27.51,2.2,2.2,0,0,0,1.78.92h.1L133,158.48a2.21,2.21,0,0,0,2-3ZM54,103.64h53.86L88,156.08,51.51,112.89C52.51,109.42,53.34,106.29,54,103.64Zm35.58,54.51,21.48-56.72,21.85,54.83Z"/><path class="cls-5" d="M35.91,157.3A3.65,3.65,0,1,0,32.26,161,3.65,3.65,0,0,0,35.91,157.3Z"/><path class="cls-5" d="M137.55,157.3a3.66,3.66,0,1,0-3.66,3.66A3.66,3.66,0,0,0,137.55,157.3Z"/><circle class="cls-8" cx="88.86" cy="157.3" r="7.53" transform="translate(-31.28 22.37) rotate(-12.22)"/><path class="cls-5" d="M100.33,158.77l-11.65-3.08a1.7,1.7,0,0,0-2.08,1.21h0A1.72,1.72,0,0,0,88,159l13,1.77Z"/><rect class="cls-8" x="98.12" y="157.29" width="9.79" height="2.77" transform="translate(-83.69 128.18) rotate(-47.73)"/><path class="cls-2" d="M105.14,80.46s-21.8,21.61-22.91,27.33,21.06,41.74,21.06,41.74l4.43-1.48S95,115.55,96.64,113.15s24.75-19.21,29.18-26,5.91-13.3,2.59-16.44S105.14,80.46,105.14,80.46Z"/><polygon class="cls-6" points="90.18 55.71 95.53 88.58 107.72 83.41 92.21 52.38 90.18 55.71"/><path class="cls-2" d="M96.25,26.06s13-3,17-4.67,6,.67,9.33,3,12.67-.33,15.33-1,12.67,1.67,12.67,1.67l2.67,5.66-7,1s-5.67-5-10.34-4.66-9,2.66-13.66,2-3.34-4.34-7.67-4.34S98.33,26.63,96.25,26.06Z"/><path class="cls-5" d="M104.58,29.3l31,25.85-2,.74L104.21,30.41S103.66,28.93,104.58,29.3Z"/><path class="cls-7" d="M99,14.67c1.32-3.69-.79-6.59-2.89-8.43-1.53-1.34-4.59-.41-4.22-2.63.14-.81,2.21-.21,1.42-1.83-1.14-2.36-5.62-.36-7,.77C84.48,4.13,82.09,1.24,80,.45,77-.68,70.26.18,68.94,4.66s5.53,7.64,5.53,7.64l-.7,5.58,1.41,1.25-1.56,6,2.61.34c.24,1.57.48,3,.69,4.13.82,4.23,3.58,3.9,5.37,3.25a14.91,14.91,0,0,0,3.19-2.06l4.18,3.55,7.51-8.16L94,21.52S97.65,18.36,99,14.67Z"/><path class="cls-2" d="M96.07,6.24c-1.53-1.34-4.59-.41-4.22-2.63.14-.81,2.21-.21,1.42-1.83-1.14-2.36-5.62-.36-7,.77C84.48,4.13,82.09,1.24,80,.45,77-.68,70.26.18,68.94,4.66s5.53,7.64,5.53,7.64,6.14.6,5.48,1.49-1.54,3.09.22,3.75,2.65.44,2.65,1.76,1.54,2.87,2,1.11,2.2-2.87,3.53-1.33-.89,5.3-.89,5.3A60.17,60.17,0,0,0,94,21.52s3.69-3.16,5-6.85S98.17,8.08,96.07,6.24Z"/><path class="cls-9" d="M98.3,22.83S82.42,38.53,82.6,40.56,82.42,42,87.41,52.2s13.66,26.6,15.88,30.47S106.24,88,106.24,88s17.55-7.94,22-12.19a52.49,52.49,0,0,0,7.76-10S113.26,37.42,107.91,31.7A79.32,79.32,0,0,0,98.3,22.83Z"/><polygon class="cls-3" points="58.78 76.76 55.82 78.8 58.59 81.94 60.99 80.27 58.78 76.76"/><polygon class="cls-5" points="88.7 58.11 121.02 77.5 122.13 74.55 90.36 57.74 88.7 58.11"/><path class="cls-9" d="M101.44,33.36s-4.62-1.66-8.31.37S57.3,77.5,57.3,77.5l3.51,3.7,44.51-30.66"/><path class="cls-5" d="M132.47,52.57l-14,25.12L135.1,94.35a1.88,1.88,0,0,0,1.67.53l3.39-.58a1.92,1.92,0,0,0,1.41-1.09l10.77-23.56a1.9,1.9,0,0,0-.57-2.3Z"/><path class="cls-10" d="M121,77.5l11.45-24.93-14,25.12L135.1,94.35a1.88,1.88,0,0,0,1.67.53l3.39-.58a2.09,2.09,0,0,0,.73-.32Z"/><path class="cls-1" d="M103.29,149.53s-2,2.22-4.06,4.25-4.62,2.59-3.7,3.14,2.4,1.11,5.17.18S107,153,107,153l.56.92,3.14-1.66-3-4.25Z"/></g></g></svg>