<svg height="512" viewBox="0 0 192 192" width="512" xmlns="http://www.w3.org/2000/svg"><path d="m96.627 125.687a15.89 15.89 0 0 1 -4.687 11.313l-33.94 33.94a16 16 0 0 1 -22.627 0l-11.314-11.313a16 16 0 0 1 0-22.627l33.941-33.94a15.89 15.89 0 0 1 11.313-4.687q.81 0 1.606.08l12.708-12.708a32.025 32.025 0 0 0 -36.941 6l-33.941 33.941a32 32 0 0 0 0 45.255l11.314 11.313a32 32 0 0 0 45.255 0l33.941-33.941a32.006 32.006 0 0 0 3.773-40.714l-11.723 11.724a15.957 15.957 0 0 1 1.322 6.364z"/><path d="m182.255 21.059-11.314-11.313a32 32 0 0 0 -45.255 0l-33.941 33.94a32.028 32.028 0 0 0 -4.945 38.886l12.127-12.127a16.07 16.07 0 0 1 -.554-4.132 15.89 15.89 0 0 1 4.687-11.313l33.94-33.94a16 16 0 0 1 22.627 0l11.314 11.313a16 16 0 0 1 0 22.627l-33.941 33.94a15.921 15.921 0 0 1 -15.445 4.133l-12.127 12.127a32.028 32.028 0 0 0 38.886-4.945l33.941-33.941a32 32 0 0 0 0-45.255z"/><path d="m44.26 85.999h107.48v16.001h-107.48z" transform="matrix(.707 -.707 .707 .707 -37.765 96.828)"/></svg>